<svg width="699" height="564" viewBox="0 0 699 564" fill="none" xmlns="http://www.w3.org/2000/svg">
<g opacity="0.3">
<path d="M166.805 303.041C176.967 308.907 183.887 316.381 186.69 324.518C189.494 332.654 188.055 341.088 182.555 348.753C177.056 356.417 167.743 362.968 155.795 367.577C143.846 372.186 129.798 374.646 115.428 374.646C101.058 374.646 87.0099 372.186 75.0613 367.577C63.1127 362.968 53.7999 356.417 48.3006 348.753C42.8013 341.088 41.3624 332.654 44.1659 324.518C46.9695 316.381 53.8895 308.907 64.0509 303.041L115.428 332.701L166.805 303.041Z" fill="url(#paint0_linear_144_296)"/>
<path d="M115.43 332.701C105.268 326.835 98.3481 319.361 95.5446 311.224C92.741 303.087 94.1799 294.653 99.6792 286.989C105.179 279.324 114.491 272.773 126.44 268.164C138.388 263.555 152.436 261.095 166.807 261.095C181.177 261.095 195.225 263.555 207.173 268.164C219.122 272.773 228.435 279.324 233.934 286.989C239.433 294.653 240.872 303.087 238.069 311.224C235.265 319.361 228.345 326.835 218.184 332.701L166.807 303.041L115.43 332.701Z" fill="url(#paint1_linear_144_296)"/>
<path d="M324.728 412.332C331.477 408.318 336.013 403.238 337.76 397.735C339.508 392.232 338.39 386.553 334.548 381.417C330.706 376.281 324.312 371.918 316.174 368.88C308.037 365.842 298.521 364.265 288.831 364.349C279.142 364.433 269.713 366.174 261.736 369.352C253.76 372.529 247.596 377.001 244.022 382.201C240.448 387.401 239.625 393.096 241.658 398.566C243.691 404.037 248.488 409.036 255.442 412.932L289.566 392.633L324.728 412.332Z" fill="url(#paint2_linear_144_296)"/>
<path d="M289.564 392.633C282.815 396.648 278.28 401.728 276.532 407.231C274.784 412.734 275.902 418.412 279.744 423.548C283.587 428.684 289.981 433.047 298.118 436.085C306.256 439.124 315.771 440.7 325.461 440.616C335.151 440.533 344.58 438.792 352.556 435.614C360.532 432.437 366.697 427.965 370.271 422.765C373.845 417.565 374.667 411.869 372.634 406.399C370.602 400.929 365.805 395.93 358.85 392.034L324.726 412.333L289.564 392.633Z" fill="url(#paint3_linear_144_296)"/>
<path d="M480.335 294.437C459.387 306.53 432.697 314.766 403.641 318.103C374.585 321.439 344.467 319.727 317.097 313.182C289.727 306.637 266.333 295.553 249.874 281.333C233.415 267.113 224.631 250.394 224.631 233.291C224.631 216.189 233.415 199.47 249.874 185.25C266.333 171.029 289.727 159.946 317.097 153.401C344.467 146.856 374.585 145.144 403.641 148.48C432.697 151.817 459.387 160.052 480.335 172.146L374.419 233.291L480.335 294.437Z" fill="url(#paint4_linear_144_296)"/>
<path d="M374.42 233.291C395.368 221.198 422.058 212.962 451.114 209.626C480.17 206.289 510.287 208.001 537.658 214.546C565.028 221.091 588.422 232.175 604.88 246.395C621.339 260.615 630.124 277.334 630.124 294.437C630.124 311.539 621.339 328.258 604.88 342.478C588.422 356.699 565.028 367.782 537.658 374.327C510.287 380.872 480.17 382.584 451.114 379.248C422.058 375.911 395.368 367.676 374.42 355.582L480.336 294.437L374.42 233.291Z" fill="url(#paint5_linear_144_296)"/>
</g>
<path d="M376.581 94.1909L376.579 49.3909L393.373 59.0874C396.846 61.0929 399.839 63.4823 402.352 66.2557C404.864 68.9864 406.804 71.9625 408.171 75.1839C409.539 78.4053 410.222 81.7013 410.222 85.072C410.222 88.4 409.539 90.8853 408.172 92.5279C406.805 94.1278 404.865 94.8425 402.353 94.6717C399.84 94.501 396.847 93.4129 393.374 91.4074L381.568 84.591L385.559 82.3512L385.559 99.3752L376.581 94.1909ZM401.244 108.432L391.545 86.5754L401.133 92.1117L410.944 114.032L401.244 108.432ZM385.559 83.5032L381.568 76.335L392.875 82.8634C395.646 84.4635 397.715 84.9756 399.082 84.3996C400.449 83.781 401.133 82.2557 401.133 79.8237C401.133 77.349 400.449 75.0343 399.082 72.8796C397.715 70.7249 395.645 68.8475 392.874 67.2474L381.568 60.719L385.558 58.0952L385.559 83.5032ZM425.595 95.7397L444.273 106.524L444.273 114.588L425.595 103.804L425.595 95.7397ZM426.26 114.556L447.377 126.748L447.377 135.068L417.337 117.723L417.336 72.9234L446.655 89.8524L446.656 98.1724L426.259 86.3957L426.26 114.556ZM467.269 147.322C464.165 145.53 461.191 143.343 458.346 140.761C455.501 138.137 453.21 135.556 451.473 133.017L454.521 126.969C456.184 129.295 458.142 131.556 460.396 133.754C462.687 135.93 464.996 137.69 467.324 139.034C469.098 140.058 470.52 140.687 471.592 140.922C472.7 141.135 473.513 141.029 474.031 140.602C474.548 140.175 474.806 139.493 474.806 138.554C474.806 137.359 474.4 136.186 473.587 135.034C472.774 133.839 471.702 132.645 470.372 131.45C469.042 130.212 467.564 128.932 465.938 127.61C464.349 126.266 462.742 124.826 461.116 123.29C459.527 121.775 458.068 120.164 456.738 118.457C455.407 116.751 454.317 114.884 453.468 112.857C452.655 110.852 452.248 108.655 452.248 106.265C452.248 103.705 452.839 101.721 454.021 100.313C455.241 98.8841 457.051 98.2441 459.453 98.3935C461.891 98.5216 464.94 99.6417 468.598 101.754C471.036 103.162 473.438 104.89 475.803 106.938C478.168 108.943 480.256 111.13 482.066 113.498L479.295 119.77C477.485 117.53 475.674 115.61 473.863 114.01C472.053 112.367 470.279 111.045 468.543 110.042C466.806 109.039 465.383 108.452 464.275 108.282C463.166 108.111 462.372 108.271 461.892 108.762C461.411 109.21 461.171 109.924 461.171 110.906C461.171 112.058 461.578 113.231 462.391 114.426C463.204 115.578 464.275 116.751 465.605 117.946C466.936 119.14 468.395 120.41 469.984 121.754C471.61 123.119 473.217 124.538 474.806 126.01C476.432 127.503 477.91 129.103 479.24 130.81C480.57 132.517 481.642 134.373 482.455 136.378C483.305 138.405 483.73 140.592 483.73 142.938C483.73 145.456 483.12 147.408 481.901 148.794C480.682 150.181 478.853 150.81 476.414 150.682C474.012 150.575 470.964 149.455 467.269 147.322ZM498.123 137.617L516.801 148.402L516.801 156.466L498.123 145.681L498.123 137.617ZM498.789 156.433L519.905 168.626L519.906 176.946L489.865 159.601L489.864 114.801L519.184 131.73L519.184 140.05L498.788 128.273L498.789 156.433ZM521.951 178.127L539.242 143.311L548.11 148.431L565.459 203.248L556.037 197.808L541.847 150.063L545.394 152.111L531.151 183.439L521.951 178.127ZM530.597 173.519L532.98 167.023L552.932 178.544L555.371 187.824L530.597 173.519ZM569.484 205.572L569.483 160.772L586.276 170.469C589.75 172.474 592.743 174.863 595.255 177.637C597.768 180.368 599.708 183.344 601.075 186.565C602.442 189.786 603.126 193.082 603.126 196.453C603.126 199.781 602.443 202.266 601.076 203.909C599.708 205.509 597.769 206.224 595.256 206.053C592.744 205.882 589.751 204.794 586.277 202.789L574.472 195.972L578.462 193.732L578.463 210.756L569.484 205.572ZM594.148 219.813L584.448 197.957L594.037 203.493L603.847 225.413L594.148 219.813ZM578.462 194.884L574.472 187.716L585.778 194.245C588.55 195.845 590.619 196.357 591.986 195.781C593.353 195.162 594.036 193.637 594.036 191.205C594.036 188.73 593.353 186.415 591.985 184.261C590.618 182.106 588.549 180.229 585.778 178.629L574.471 172.1L578.462 169.476L578.462 194.884ZM628.808 240.593C625.815 238.865 623.025 236.7 620.439 234.097C617.889 231.473 615.672 228.571 613.788 225.393C611.903 222.214 610.425 218.907 609.354 215.473C608.319 212.059 607.801 208.667 607.801 205.297C607.801 201.926 608.318 199.131 609.353 196.913C610.424 194.715 611.902 193.115 613.787 192.113C615.708 191.131 617.943 190.822 620.493 191.185C623.042 191.505 625.832 192.54 628.862 194.289C632.224 196.231 635.254 198.663 637.952 201.585C640.686 204.487 642.977 207.772 644.825 211.442L639.061 214.258C637.73 211.74 636.252 209.585 634.626 207.793C633.001 205.959 631.227 204.487 629.306 203.377C627.495 202.332 625.832 201.713 624.317 201.521C622.803 201.329 621.491 201.553 620.382 202.193C619.274 202.833 618.406 203.846 617.778 205.233C617.186 206.641 616.891 208.411 616.891 210.545C616.891 212.678 617.187 214.79 617.778 216.881C618.406 218.993 619.275 221.009 620.383 222.929C621.492 224.849 622.803 226.588 624.318 228.145C625.833 229.702 627.496 231.004 629.307 232.049C631.228 233.159 633.002 233.756 634.627 233.841C636.253 233.884 637.731 233.393 639.061 232.37L644.825 241.842C642.978 243.378 640.687 244.039 637.953 243.825C635.256 243.633 632.207 242.556 628.808 240.593ZM677.491 223.135L686.47 228.32L686.472 273.12L677.493 267.936L677.491 223.135ZM659.868 257.759L650.889 252.575L650.888 207.775L659.866 212.959L659.868 257.759ZM678.157 249.952L659.202 239.007L659.202 230.239L678.157 241.184L678.157 249.952Z" fill="#331C6C"/>
<path d="M132.858 226.516L132.859 181.716L150.484 171.539C154.697 169.107 158.41 167.902 161.625 167.923C164.839 167.902 167.352 169.032 169.162 171.315C170.972 173.598 171.878 177.021 171.877 181.587C171.877 186.109 170.972 190.579 169.161 194.995C167.351 199.368 164.838 203.422 161.623 207.155C158.409 210.846 154.695 213.907 150.483 216.339L132.858 226.516ZM141.837 212.82L150.04 208.084C152.626 206.59 154.862 204.745 156.746 202.547C158.668 200.286 160.146 197.811 161.18 195.123C162.252 192.414 162.788 189.651 162.788 186.835C162.788 183.976 162.252 181.832 161.181 180.403C160.146 178.91 158.668 178.163 156.747 178.163C154.863 178.099 152.627 178.814 150.041 180.308L141.838 185.044L141.837 212.82ZM186.907 168.557L205.585 157.772L205.585 165.836L186.907 176.621L186.907 168.557ZM187.572 186.605L208.688 174.412L208.688 182.732L178.648 200.077L178.649 155.277L207.969 138.348L207.969 146.668L187.573 158.445L187.572 186.605ZM228.58 172.015C225.476 173.807 222.502 175.055 219.657 175.759C216.812 176.42 214.521 176.485 212.784 175.951L215.833 166.383C217.495 166.788 219.454 166.788 221.708 166.383C223.998 165.914 226.308 165.007 228.636 163.663C230.409 162.639 231.832 161.625 232.903 160.623C234.012 159.556 234.825 158.511 235.342 157.487C235.859 156.463 236.118 155.481 236.118 154.543C236.118 153.348 235.712 152.644 234.899 152.431C234.086 152.175 233.014 152.217 231.684 152.559C230.354 152.857 228.876 153.284 227.25 153.839C225.662 154.33 224.054 154.746 222.428 155.087C220.84 155.407 219.38 155.482 218.05 155.311C216.72 155.14 215.63 154.533 214.78 153.487C213.967 152.421 213.561 150.693 213.561 148.303C213.561 145.743 214.152 143.077 215.335 140.303C216.554 137.466 218.365 134.735 220.767 132.111C223.205 129.423 226.254 127.023 229.912 124.911C232.35 123.503 234.752 122.457 237.117 121.774C239.482 121.049 241.569 120.825 243.38 121.102L240.608 130.574C238.798 130.425 236.987 130.596 235.177 131.087C233.366 131.535 231.593 132.26 229.856 133.263C228.119 134.265 226.697 135.321 225.588 136.431C224.48 137.54 223.685 138.618 223.205 139.663C222.725 140.666 222.484 141.658 222.484 142.639C222.484 143.791 222.891 144.495 223.704 144.751C224.516 144.964 225.588 144.9 226.918 144.559C228.248 144.217 229.708 143.801 231.297 143.311C232.922 142.799 234.53 142.361 236.119 141.999C237.744 141.614 239.222 141.508 240.552 141.678C241.883 141.849 242.954 142.468 243.767 143.534C244.617 144.58 245.042 146.276 245.042 148.622C245.041 151.14 244.432 153.796 243.212 156.59C241.993 159.385 240.164 162.126 237.725 164.814C235.323 167.481 232.275 169.881 228.58 172.015ZM251.176 158.2L251.178 113.4L260.157 108.216L260.155 153.016L251.176 158.2ZM288.096 137.651C285.029 139.421 282.203 140.499 279.616 140.883C277.067 141.203 274.831 140.872 272.91 139.891C271.026 138.888 269.548 137.289 268.476 135.091C267.442 132.873 266.924 130.078 266.925 126.707C266.925 123.337 267.442 119.945 268.477 116.531C269.548 113.097 271.045 109.779 272.966 106.579C274.888 103.379 277.142 100.478 279.728 97.8749C282.315 95.2295 285.16 93.0107 288.264 91.2186C291.7 89.2345 294.785 88.1144 297.52 87.8583C300.291 87.5809 302.619 88.1568 304.503 89.5861L298.739 99.0583C297.335 98.1623 295.801 97.789 294.138 97.9384C292.476 98.0451 290.665 98.6639 288.707 99.7946C286.822 100.883 285.104 102.216 283.552 103.795C282 105.373 280.652 107.134 279.506 109.075C278.398 110.995 277.529 113.011 276.901 115.123C276.31 117.214 276.014 119.326 276.014 121.459C276.014 123.55 276.31 125.299 276.901 126.707C277.529 128.094 278.397 129.128 279.506 129.811C280.651 130.43 281.981 130.643 283.496 130.451C285.048 130.237 286.748 129.597 288.595 128.531C290.369 127.507 292.087 126.194 293.75 124.594C295.449 122.93 297.094 120.85 298.683 118.354L303.781 122.898C301.675 125.949 299.218 128.776 296.41 131.378C293.639 133.96 290.867 136.051 288.096 137.651ZM295.579 126.29L295.579 109.458L303.782 104.722L303.781 122.898L295.579 126.29ZM312.122 123.01L312.123 78.2103L319.55 73.9221L342.439 92.9614L338.837 95.0415L338.838 62.7855L347.706 57.6652L347.704 102.465L340.333 106.721L317.388 87.7142L320.991 85.6341L320.99 117.89L312.122 123.01Z" fill="url(#paint6_linear_144_296)"/>
<path d="M4.98222 388.316L4.98079 343.516L22.6058 353.693C26.8181 356.125 30.5316 359.208 33.7463 362.941C36.9609 366.632 39.4736 370.664 41.2843 375.037C43.0949 379.411 44.0003 383.88 44.0004 388.446C44.0006 392.968 43.0954 396.392 41.285 398.717C39.4746 401 36.9621 402.152 33.7475 402.173C30.5329 402.152 26.8195 400.925 22.6073 398.493L4.98222 388.316ZM13.9607 384.989L22.1636 389.725C24.7501 391.218 26.9855 391.954 28.8699 391.933C30.7913 391.89 32.2692 391.123 33.3037 389.629C34.3752 388.157 34.9109 386.013 34.9108 383.197C34.9107 380.339 34.3749 377.576 33.3033 374.909C32.2686 372.221 30.7906 369.768 28.8691 367.549C26.9847 365.309 24.7492 363.442 22.1627 361.949L13.9599 357.213L13.9607 384.989ZM59.0299 392.772L77.708 403.556L77.7082 411.62L59.0301 400.836L59.0299 392.772ZM59.6956 411.588L80.8124 423.78L80.8126 432.1L50.7725 414.755L50.771 369.955L80.0907 386.884L80.0909 395.204L59.6947 383.428L59.6956 411.588ZM99.0547 442.633L82.315 388.169L92.0143 393.769L106.648 441.897L100.939 438.601L115.791 407.498L124.715 412.65L107.923 447.753L99.0547 442.633ZM136.213 437.337L154.891 448.121L154.891 456.185L136.213 445.401L136.213 437.337ZM136.879 456.153L157.995 468.345L157.996 476.665L127.956 459.32L127.954 414.52L157.274 431.449L157.274 439.769L136.878 427.993L136.879 456.153ZM165.14 480.79L165.138 435.99L174.117 441.174L174.118 477.526L193.572 488.759L193.573 497.207L165.14 480.79ZM216.784 511.377C213.718 509.607 210.872 507.388 208.249 504.721C205.662 502.076 203.408 499.153 201.487 495.953C199.602 492.774 198.124 489.467 197.053 486.033C196.018 482.619 195.501 479.249 195.501 475.921C195.5 472.593 196.018 469.819 197.052 467.601C198.124 465.403 199.62 463.814 201.541 462.833C203.463 461.852 205.717 461.532 208.303 461.873C210.889 462.214 213.698 463.26 216.727 465.009C219.794 466.78 222.602 468.978 225.152 471.602C227.739 474.247 229.974 477.159 231.859 480.338C233.78 483.538 235.277 486.855 236.348 490.29C237.42 493.682 237.956 497.063 237.956 500.434C237.956 503.762 237.42 506.546 236.349 508.786C235.277 510.983 233.781 512.573 231.86 513.554C229.975 514.514 227.74 514.823 225.153 514.482C222.604 514.162 219.814 513.127 216.784 511.377ZM216.729 502.513C218.465 503.516 220.054 504.092 221.495 504.241C222.973 504.412 224.266 504.178 225.375 503.538C226.483 502.898 227.333 501.874 227.924 500.466C228.552 499.079 228.866 497.319 228.866 495.186C228.866 493.052 228.552 490.93 227.924 488.818C227.333 486.727 226.483 484.722 225.374 482.802C224.303 480.903 223.028 479.186 221.55 477.649C220.072 476.113 218.464 474.844 216.728 473.841C214.991 472.839 213.384 472.252 211.906 472.081C210.465 471.932 209.19 472.177 208.082 472.817C206.973 473.457 206.105 474.47 205.477 475.857C204.886 477.265 204.59 479.036 204.59 481.169C204.59 483.26 204.886 485.372 205.477 487.505C206.105 489.617 206.955 491.622 208.027 493.521C209.135 495.441 210.429 497.169 211.907 498.705C213.385 500.241 214.992 501.511 216.729 502.513ZM244.704 526.73L244.703 481.93L261.497 491.627C264.97 493.632 267.963 496.022 270.476 498.795C272.988 501.526 274.928 504.502 276.295 507.723C277.663 510.945 278.346 514.241 278.346 517.611C278.346 520.939 277.663 523.425 276.296 525.067C274.929 526.71 272.989 527.467 270.476 527.339C267.964 527.168 264.971 526.08 261.498 524.075L249.692 517.258L253.683 514.891L253.683 531.915L244.704 526.73ZM253.683 516.043L249.692 508.81L260.999 515.339C263.77 516.939 265.839 517.451 267.206 516.875C268.573 516.299 269.257 514.795 269.257 512.363C269.257 509.888 268.573 507.574 267.206 505.419C265.839 503.264 263.769 501.387 260.998 499.787L249.692 493.258L253.682 490.635L253.683 516.043Z" fill="url(#paint7_linear_144_296)"/>
<path d="M294.602 544.977L294.604 500.177L302.03 495.888L318.546 517.968L314.611 520.24L330.851 479.248L338.223 474.991L338.332 519.727L329.908 524.592L329.853 494.736L331.405 493.839L318.435 526.48L314.389 528.816L301.143 511.312L303.028 510.224L303.027 540.112L294.602 544.977ZM355.796 482.892L374.474 472.108L374.474 480.172L355.796 490.956L355.796 482.892ZM356.461 500.94L377.577 488.748L377.577 497.068L347.537 514.412L347.538 469.612L376.858 452.684L376.858 461.004L356.462 472.78L356.461 500.94ZM384.721 492.943L384.723 448.143L392.15 443.854L415.039 462.894L411.436 464.974L411.437 432.718L420.305 427.597L420.304 472.397L412.932 476.654L389.988 457.646L393.59 455.566L393.589 487.822L384.721 492.943ZM437.52 462.457L437.521 426.105L425.106 433.274L425.106 424.826L458.915 405.304L458.915 413.752L446.5 420.921L446.499 457.273L437.52 462.457Z" fill="#350079"/>
<defs>
<linearGradient id="paint0_linear_144_296" x1="64.0538" y1="362.363" x2="115.424" y2="273.379" gradientUnits="userSpaceOnUse">
<stop stop-color="#331C6C"/>
<stop offset="0.9944" stop-color="#662081"/>
</linearGradient>
<linearGradient id="paint1_linear_144_296" x1="218.181" y1="273.379" x2="166.811" y2="362.363" gradientUnits="userSpaceOnUse">
<stop stop-color="#331C6C"/>
<stop offset="0.9944" stop-color="#662081"/>
</linearGradient>
<linearGradient id="paint2_linear_144_296" x1="254.406" y1="372.932" x2="290.098" y2="432.933" gradientUnits="userSpaceOnUse">
<stop stop-color="#331C6C"/>
<stop offset="0.9944" stop-color="#662081"/>
</linearGradient>
<linearGradient id="paint3_linear_144_296" x1="359.887" y1="432.034" x2="324.194" y2="372.033" gradientUnits="userSpaceOnUse">
<stop stop-color="#331C6C"/>
<stop offset="0.9944" stop-color="#662081"/>
</linearGradient>
<linearGradient id="paint4_linear_144_296" x1="268.497" y1="172.149" x2="374.399" y2="355.593" gradientUnits="userSpaceOnUse">
<stop stop-color="#331C6C"/>
<stop offset="0.9944" stop-color="#662081"/>
</linearGradient>
<linearGradient id="paint5_linear_144_296" x1="586.258" y1="355.579" x2="480.356" y2="172.135" gradientUnits="userSpaceOnUse">
<stop stop-color="#331C6C"/>
<stop offset="0.9944" stop-color="#662081"/>
</linearGradient>
<linearGradient id="paint6_linear_144_296" x1="152.501" y1="211.5" x2="251.143" y2="29.0408" gradientUnits="userSpaceOnUse">
<stop stop-color="#7000FF"/>
<stop offset="1" stop-color="#350079"/>
</linearGradient>
<linearGradient id="paint7_linear_144_296" x1="60.0654" y1="410.85" x2="140.047" y2="356.359" gradientUnits="userSpaceOnUse">
<stop stop-color="#7000FF"/>
<stop offset="1" stop-color="#350079"/>
</linearGradient>
</defs>
</svg>
