<svg width="210" height="210" viewBox="0 0 210 210" fill="none" xmlns="http://www.w3.org/2000/svg">
<path d="M98.4375 170.625C97.8573 170.625 97.3009 170.395 96.8907 169.984C96.4805 169.574 96.25 169.018 96.25 168.438V159.688C96.25 159.107 96.4805 158.551 96.8907 158.141C97.3009 157.73 97.8573 157.5 98.4375 157.5C99.0177 157.5 99.5741 157.73 99.9843 158.141C100.395 158.551 100.625 159.107 100.625 159.688V168.438C100.625 169.018 100.395 169.574 99.9843 169.984C99.5741 170.395 99.0177 170.625 98.4375 170.625ZM111.562 170.625C110.982 170.625 110.426 170.395 110.016 169.984C109.605 169.574 109.375 169.018 109.375 168.438V159.688C109.375 159.107 109.605 158.551 110.016 158.141C110.426 157.73 110.982 157.5 111.562 157.5C112.143 157.5 112.699 157.73 113.109 158.141C113.52 158.551 113.75 159.107 113.75 159.688V168.438C113.75 169.018 113.52 169.574 113.109 169.984C112.699 170.395 112.143 170.625 111.562 170.625ZM105 52.5C104.42 52.5 103.863 52.2695 103.453 51.8593C103.043 51.4491 102.812 50.8927 102.812 50.3125V41.5625C102.812 40.9823 103.043 40.4259 103.453 40.0157C103.863 39.6055 104.42 39.375 105 39.375C105.58 39.375 106.137 39.6055 106.547 40.0157C106.957 40.4259 107.188 40.9823 107.188 41.5625V50.3125C107.188 50.8927 106.957 51.4491 106.547 51.8593C106.137 52.2695 105.58 52.5 105 52.5ZM159.688 98.4375H150.938C150.357 98.4375 149.801 98.207 149.391 97.7968C148.98 97.3866 148.75 96.8302 148.75 96.25C148.75 95.6698 148.98 95.1134 149.391 94.7032C149.801 94.293 150.357 94.0625 150.938 94.0625H159.688C160.268 94.0625 160.824 94.293 161.234 94.7032C161.645 95.1134 161.875 95.6698 161.875 96.25C161.875 96.8302 161.645 97.3866 161.234 97.7968C160.824 98.207 160.268 98.4375 159.688 98.4375ZM59.0625 98.4375H50.3125C49.7323 98.4375 49.1759 98.207 48.7657 97.7968C48.3555 97.3866 48.125 96.8302 48.125 96.25C48.125 95.6698 48.3555 95.1134 48.7657 94.7032C49.1759 94.293 49.7323 94.0625 50.3125 94.0625H59.0625C59.6427 94.0625 60.1991 94.293 60.6093 94.7032C61.0195 95.1134 61.25 95.6698 61.25 96.25C61.25 96.8302 61.0195 97.3866 60.6093 97.7968C60.1991 98.207 59.6427 98.4375 59.0625 98.4375ZM122.579 55.9956C122.219 55.9956 121.865 55.9069 121.548 55.7374C121.231 55.5679 120.96 55.3229 120.761 55.024C120.561 54.725 120.438 54.3815 120.402 54.0237C120.367 53.6658 120.42 53.3048 120.557 52.9725L123.909 44.8875C124.137 44.3613 124.563 43.9458 125.095 43.7305C125.626 43.5153 126.221 43.5174 126.751 43.7366C127.281 43.9557 127.704 44.3743 127.929 44.9022C128.153 45.43 128.161 46.0249 127.951 46.5588L124.6 54.6437C124.435 55.0438 124.154 55.3858 123.795 55.6264C123.435 55.8671 123.012 55.9956 122.579 55.9956ZM155.522 119.368C155.236 119.368 154.952 119.312 154.687 119.201L146.602 115.85C146.076 115.622 145.66 115.196 145.445 114.664C145.23 114.133 145.232 113.538 145.451 113.007C145.67 112.477 146.089 112.055 146.617 111.83C147.144 111.606 147.739 111.598 148.273 111.807L156.358 115.159C156.826 115.352 157.212 115.702 157.451 116.148C157.689 116.594 157.766 117.11 157.667 117.606C157.569 118.102 157.301 118.549 156.91 118.87C156.519 119.192 156.029 119.367 155.522 119.368ZM62.5581 80.8588C62.2713 80.8594 61.9872 80.8029 61.7225 80.6925L53.6375 77.3412C53.1113 77.113 52.6958 76.6871 52.4805 76.1554C52.2653 75.6238 52.2674 75.0288 52.4866 74.4987C52.7057 73.9686 53.1243 73.5458 53.6522 73.3214C54.18 73.097 54.7749 73.0888 55.3088 73.2987L63.3937 76.65C63.8614 76.8435 64.2474 77.1932 64.4861 77.6394C64.7248 78.0857 64.8014 78.6009 64.7029 79.0973C64.6043 79.5936 64.3367 80.0405 63.9456 80.3617C63.5545 80.6829 63.0642 80.8586 62.5581 80.8588ZM137.484 65.9531C137.052 65.953 136.629 65.8248 136.27 65.5847C135.91 65.3446 135.63 65.0034 135.464 64.6041C135.299 64.2048 135.255 63.7654 135.339 63.3413C135.423 62.9172 135.63 62.5274 135.936 62.2213L142.122 56.035C142.534 55.6365 143.087 55.416 143.661 55.421C144.234 55.426 144.783 55.6561 145.188 56.0616C145.594 56.4672 145.824 57.0159 145.829 57.5894C145.834 58.163 145.613 58.7156 145.215 59.1281L139.029 65.3144C138.826 65.5172 138.585 65.6781 138.32 65.7877C138.055 65.8973 137.771 65.9535 137.484 65.9531ZM66.3294 137.108C65.8971 137.108 65.4745 136.98 65.115 136.74C64.7554 136.5 64.4751 136.158 64.3094 135.759C64.1437 135.36 64.1 134.92 64.1839 134.496C64.2678 134.072 64.4754 133.682 64.7806 133.376L70.9669 127.19C71.3794 126.792 71.932 126.571 72.5056 126.576C73.0791 126.581 73.6278 126.811 74.0334 127.217C74.4389 127.622 74.669 128.171 74.674 128.744C74.679 129.318 74.4585 129.871 74.06 130.283L67.8737 136.469C67.671 136.672 67.4303 136.833 67.1652 136.943C66.9002 137.052 66.6162 137.109 66.3294 137.108ZM143.671 137.108C143.09 137.108 142.533 136.879 142.122 136.469L135.936 130.283C135.537 129.871 135.317 129.318 135.322 128.744C135.327 128.171 135.557 127.622 135.962 127.217C136.368 126.811 136.917 126.581 137.49 126.576C138.064 126.571 138.616 126.792 139.029 127.19L145.215 133.376C145.52 133.682 145.728 134.071 145.812 134.495C145.896 134.919 145.852 135.358 145.687 135.757C145.522 136.156 145.242 136.497 144.883 136.738C144.525 136.978 144.103 137.107 143.671 137.108ZM72.5156 65.9531C71.9353 65.9532 71.3785 65.7236 70.9669 65.3144L64.7806 59.1281C64.3822 58.7156 64.1617 58.163 64.1667 57.5894C64.1716 57.0159 64.4017 56.4672 64.8073 56.0616C65.2129 55.6561 65.7615 55.426 66.3351 55.421C66.9086 55.416 67.4612 55.6365 67.8737 56.035L74.06 62.2213C74.365 62.5272 74.5725 62.9165 74.6565 63.3402C74.7405 63.7639 74.6972 64.203 74.532 64.6021C74.3669 65.0012 74.0872 65.3425 73.7284 65.5829C73.3696 65.8234 72.9476 65.9522 72.5156 65.9531ZM147.442 80.8588C146.936 80.8586 146.445 80.6829 146.054 80.3617C145.663 80.0405 145.396 79.5936 145.297 79.0973C145.199 78.6009 145.275 78.0857 145.514 77.6394C145.753 77.1932 146.139 76.8435 146.606 76.65L154.691 73.2987C155.225 73.0888 155.82 73.097 156.348 73.3214C156.876 73.5458 157.294 73.9686 157.513 74.4987C157.733 75.0288 157.735 75.6238 157.519 76.1554C157.304 76.6871 156.889 77.113 156.363 77.3412L148.277 80.6925C148.013 80.8029 147.729 80.8594 147.442 80.8588ZM54.4775 119.368C53.9714 119.367 53.4811 119.192 53.09 118.87C52.6989 118.549 52.4313 118.102 52.3327 117.606C52.2342 117.11 52.3108 116.594 52.5495 116.148C52.7882 115.702 53.1743 115.352 53.6419 115.159L61.7269 111.807C62.2607 111.598 62.8556 111.606 63.3834 111.83C63.9113 112.055 64.3299 112.477 64.549 113.007C64.7682 113.538 64.7704 114.133 64.5551 114.664C64.3398 115.196 63.9243 115.622 63.3981 115.85L55.3131 119.201C55.0478 119.31 54.7641 119.366 54.4775 119.368ZM87.4213 55.9956C86.9884 55.9956 86.5653 55.8671 86.2055 55.6264C85.8457 55.3858 85.5654 55.0438 85.4 54.6437L82.0487 46.5588C81.9331 46.2923 81.8718 46.0055 81.8682 45.715C81.8646 45.4246 81.9189 45.1364 82.0279 44.8672C82.1369 44.5979 82.2985 44.3531 82.5031 44.147C82.7077 43.9408 82.9514 43.7775 83.2198 43.6666C83.4882 43.5556 83.776 43.4992 84.0665 43.5006C84.3569 43.5021 84.6442 43.5614 84.9115 43.675C85.1788 43.7887 85.4208 43.9544 85.6233 44.1626C85.8259 44.3708 85.9849 44.6172 86.0912 44.8875L89.4425 52.9725C89.5799 53.3048 89.6332 53.6658 89.5978 54.0237C89.5623 54.3815 89.4392 54.725 89.2394 55.024C89.0395 55.3229 88.7691 55.5679 88.452 55.7374C88.1348 55.9069 87.7808 55.9956 87.4213 55.9956Z" fill="white"/>
<path d="M115.938 161.875H94.0625C93.4823 161.875 92.9259 161.645 92.5157 161.234C92.1055 160.824 91.875 160.268 91.875 159.688V150.938C91.875 150.357 92.1055 149.801 92.5157 149.391C92.9259 148.98 93.4823 148.75 94.0625 148.75H115.938C116.518 148.75 117.074 148.98 117.484 149.391C117.895 149.801 118.125 150.357 118.125 150.938V159.688C118.125 160.268 117.895 160.824 117.484 161.234C117.074 161.645 116.518 161.875 115.938 161.875ZM96.25 157.5H113.75V153.125H96.25V157.5Z" fill="white"/>
<path d="M100.625 150.937C100.045 150.937 99.4884 150.707 99.0782 150.297C98.668 149.887 98.4375 149.33 98.4375 148.75V131.648L92.015 114.52C91.9139 114.251 91.8667 113.965 91.8762 113.678C91.8857 113.391 91.9516 113.108 92.0702 112.847C92.1888 112.585 92.3579 112.349 92.5676 112.153C92.7773 111.957 93.0236 111.804 93.2925 111.702C93.5614 111.601 93.8475 111.554 94.1347 111.564C94.4218 111.573 94.7042 111.639 94.9658 111.758C95.2275 111.876 95.4632 112.045 95.6595 112.255C95.8558 112.465 96.0089 112.711 96.11 112.98L102.672 130.48C102.765 130.726 102.812 130.987 102.812 131.25V148.75C102.812 149.33 102.582 149.887 102.172 150.297C101.762 150.707 101.205 150.937 100.625 150.937ZM109.375 150.937C108.795 150.937 108.238 150.707 107.828 150.297C107.418 149.887 107.187 149.33 107.187 148.75V131.25C107.187 130.987 107.236 130.725 107.327 130.48L113.89 112.98C113.991 112.711 114.144 112.465 114.341 112.255C114.537 112.045 114.773 111.876 115.034 111.758C115.296 111.639 115.578 111.573 115.865 111.564C116.152 111.554 116.439 111.601 116.708 111.702C116.976 111.804 117.223 111.957 117.432 112.153C117.642 112.349 117.811 112.585 117.93 112.847C118.048 113.108 118.114 113.391 118.124 113.678C118.133 113.965 118.086 114.251 117.985 114.52L111.562 131.648V148.75C111.562 149.33 111.332 149.887 110.922 150.297C110.512 150.707 109.955 150.937 109.375 150.937Z" fill="white"/>
<path d="M120.312 153.125H89.6875C89.1073 153.125 88.5509 152.895 88.1407 152.484C87.7305 152.074 87.5 151.518 87.5 150.938V131.495C80.9415 128.23 75.4215 123.203 71.558 116.979C67.6945 110.754 65.6402 103.576 65.625 96.25C65.625 74.5413 83.2913 56.875 105 56.875C126.709 56.875 144.375 74.5413 144.375 96.25C144.36 103.576 142.305 110.754 138.442 116.979C134.579 123.203 129.058 128.23 122.5 131.495V150.938C122.5 151.518 122.27 152.074 121.859 152.484C121.449 152.895 120.893 153.125 120.312 153.125ZM91.875 148.75H118.125V130.112C118.125 129.255 118.628 128.472 119.407 128.118C125.535 125.341 130.734 120.86 134.386 115.21C138.037 109.559 139.986 102.978 140 96.25C140 76.9519 124.298 61.25 105 61.25C85.7019 61.25 70 76.9519 70 96.25C70.0139 102.978 71.9627 109.559 75.6141 115.21C79.2655 120.86 84.4653 125.341 90.5931 128.118C90.976 128.292 91.3005 128.572 91.5278 128.926C91.7552 129.28 91.8757 129.692 91.875 130.112V148.75Z" fill="white"/>
<path d="M105 114.844C104.42 114.844 103.863 114.613 103.453 114.203C103.043 113.793 102.812 113.236 102.812 112.656C102.812 111.786 102.467 110.951 101.851 110.336C101.236 109.721 100.401 109.375 99.5312 109.375C98.661 109.375 97.8264 109.721 97.2111 110.336C96.5957 110.951 96.25 111.786 96.25 112.656C96.25 113.236 96.0195 113.793 95.6093 114.203C95.1991 114.613 94.6427 114.844 94.0625 114.844C93.4823 114.844 92.9259 114.613 92.5157 114.203C92.1055 113.793 91.875 113.236 91.875 112.656C91.875 108.434 95.3094 105 99.5312 105C103.753 105 107.188 108.434 107.188 112.656C107.188 113.236 106.957 113.793 106.547 114.203C106.137 114.613 105.58 114.844 105 114.844Z" fill="white"/>
<path d="M115.938 114.844C115.357 114.844 114.801 114.613 114.391 114.203C113.98 113.793 113.75 113.236 113.75 112.656C113.75 111.786 113.404 110.951 112.789 110.336C112.174 109.721 111.339 109.375 110.469 109.375C109.599 109.375 108.764 109.721 108.149 110.336C107.533 110.951 107.188 111.786 107.188 112.656C107.188 113.236 106.957 113.793 106.547 114.203C106.137 114.613 105.58 114.844 105 114.844C104.42 114.844 103.863 114.613 103.453 114.203C103.043 113.793 102.812 113.236 102.812 112.656C102.812 108.434 106.247 105 110.469 105C114.691 105 118.125 108.434 118.125 112.656C118.125 113.236 117.895 113.793 117.484 114.203C117.074 114.613 116.518 114.844 115.938 114.844Z" fill="white"/>
</svg>
