<svg width="128" height="128" viewBox="0 0 128 128" fill="none" xmlns="http://www.w3.org/2000/svg">
<g clip-path="url(#clip0_144_273)">
<path fill-rule="evenodd" clip-rule="evenodd" d="M62.2616 45.0793C72.7139 45.0793 81.1873 53.5526 81.1873 64.0053C81.1873 74.4576 72.7141 82.9311 62.2616 82.9311C51.8091 82.9311 43.3356 74.4576 43.3356 64.0053C43.3359 53.5528 51.8091 45.0793 62.2616 45.0793ZM30.2326 102.894C24.5048 98.1536 19.8676 92.1941 16.6996 85.4643C13.5339 78.7388 11.9256 71.4308 11.9256 63.9998C11.9256 52.8478 15.5561 42.1031 22.3568 33.2623C29.1478 24.4341 38.6751 18.0556 49.4494 15.2088C50.7846 14.8561 51.5914 13.4753 51.2396 12.1393C50.8881 10.8033 49.5056 9.99557 48.1693 10.3488C36.3241 13.4783 25.8471 20.4871 18.3804 30.1936C10.9009 39.9171 6.8901 51.7316 6.8901 63.9998C6.8901 72.1746 8.6716 80.2111 12.1538 87.6083C15.6358 95.0051 20.7296 101.559 27.0258 106.77C28.0943 107.654 29.6831 107.504 30.5673 106.435C31.4513 105.367 31.3011 103.778 30.2326 102.894ZM69.1508 8.92382L74.8316 4.48757C75.9233 3.63482 76.1173 2.05607 75.2646 0.96432C74.4118 -0.12743 72.8333 -0.32143 71.7413 0.53132L60.8701 9.02107C60.6996 9.14932 60.5416 9.30482 60.4056 9.47857C59.5529 10.5703 59.7469 12.1491 60.8386 13.0018L71.7413 21.5161C72.8333 22.3688 74.4118 22.1748 75.2646 21.0831C76.1173 19.9913 75.9233 18.4126 74.8316 17.5601L70.5086 14.1841C81.1188 15.9023 90.8788 20.9818 98.4208 28.6733C107.7 38.1368 112.842 50.7453 112.842 63.9998C112.842 77.4283 107.557 90.1853 98.0631 99.6793C88.5691 109.173 75.8121 114.458 62.3836 114.458H2.5136C1.12335 114.458 -0.00415039 115.586 -0.00415039 116.976C-0.00415039 118.367 1.12335 119.494 2.5136 119.494H62.3839C77.1518 119.494 91.1831 113.681 101.624 103.24C112.065 92.7993 117.878 78.7681 117.878 64.0003C117.878 49.4221 112.208 35.5588 102.004 25.1521C93.1876 16.1608 81.6336 10.4433 69.1508 8.92382ZM118.192 119.494H97.9431C96.5529 119.494 95.4253 118.366 95.4253 116.976C95.4253 115.586 96.5529 114.458 97.9431 114.458H118.192L113.047 110.44C111.955 109.587 111.761 108.008 112.614 106.917C113.466 105.825 115.045 105.631 116.137 106.484L127.002 114.969C127.179 115.102 127.337 115.257 127.473 115.431C128.325 116.523 128.131 118.101 127.04 118.954L116.137 127.468C115.045 128.321 113.466 128.127 112.614 127.035C111.761 125.944 111.955 124.365 113.047 123.512L118.192 119.494ZM68.6191 31.8163L66.1256 25.3386H58.3974L55.9039 31.8163C51.5686 32.6678 47.5406 34.3741 44.0001 36.7508L37.6521 33.9316L32.1876 39.3961L35.0066 45.7436C32.6296 49.2836 30.9233 53.3123 30.0721 57.6478L23.5948 60.1411V67.8693L30.0711 70.3621C30.9229 74.6981 32.6284 78.7276 35.0064 82.2683L32.1879 88.6143L37.6526 94.0788L44.0009 91.2596C47.5411 93.6363 51.5691 95.3426 55.9044 96.1941L58.3979 102.672H66.1261L68.6189 96.1956C72.9549 95.3438 76.9844 93.6383 80.5251 91.2603L86.8711 94.0788L92.3356 88.6143L89.5163 82.2661C91.8931 78.7258 93.5993 74.6978 94.4508 70.3626L100.929 67.8691V60.1408L94.4526 57.6481C93.6008 53.3121 91.8951 49.2826 89.5173 45.7418L92.3358 39.3958L86.8711 33.9313L80.5231 36.7506C76.9823 34.3741 72.9541 32.6678 68.6191 31.8163Z" fill="white"/>
</g>
<defs>
<clipPath id="clip0_144_273">
<rect width="128" height="128" fill="white"/>
</clipPath>
</defs>
</svg>
