<svg width="263" height="57" viewBox="0 0 263 57" fill="none" xmlns="http://www.w3.org/2000/svg">
<path d="M14.2914 12.7545C13.5418 13.6199 12.8276 14.515 12.0354 15.3447C9.50389 17.997 8.24942 21.1979 7.71797 24.6183C6.71673 31.058 8.37787 36.9667 12.4059 42.2411C14.7916 45.3653 17.8608 47.8051 21.5293 49.621C25.6064 51.6391 29.9412 52.6179 34.496 52.5157C40.6977 52.3769 46.2699 50.4376 51.0006 46.6459C52.0959 45.7679 53.2554 44.9029 54.1055 43.7556C53.8681 44.6647 53.2107 45.3297 52.5694 45.9217C51.0024 47.3682 49.4757 48.8625 47.6904 50.0954C43.5319 52.9665 38.9156 54.724 33.7873 55.435C28.3953 56.1823 23.24 55.4864 18.4404 53.1895C10.7652 49.5166 5.94176 43.6733 4.49633 35.68C3.08733 27.8898 5.43619 21.0543 11.1761 15.2448C11.745 14.6693 12.2849 14.0667 12.8828 13.5192C13.2576 13.1762 13.7168 12.9136 14.1378 12.6147L14.2914 12.7545Z" fill="#350079"/>
<path d="M45.2465 12.5621C43.6703 11.8872 42.591 10.5687 41.063 9.80391C38.1284 8.33457 35.0867 7.3408 31.7363 7.05374C26.6496 6.61788 21.8726 7.61028 17.4646 9.83256C9.75404 13.7205 5.08579 19.7742 3.63834 27.8986C2.55508 33.9777 3.98509 39.5739 7.326 44.842C8.14621 46.1357 9.22828 47.1612 10.2493 48.2664C10.4564 48.4908 10.7723 48.6695 10.6175 49.1135C9.93782 48.8623 9.46896 48.3814 9.04642 47.9592C4.79896 43.7105 1.62523 38.9039 0.519941 33.0815C-1.23644 23.8273 1.42621 15.9096 8.97732 9.62715C12.7709 6.47096 17.291 4.61893 22.3894 4.05356C29.741 3.23836 36.3046 4.96877 42.0257 9.33923C42.9861 10.0695 43.9045 10.8467 44.777 11.6678C45.043 11.9192 45.2957 12.1672 45.2499 12.5589L45.2465 12.5621Z" fill="#350079"/>
<path d="M46.4571 41.9875C46.6668 41.2889 47.3261 40.8943 47.7523 40.3415C50.5161 36.7573 52.0379 32.8262 52.1561 28.36C52.3095 22.558 50.4665 17.3833 46.7565 12.8345C42.7009 7.86175 37.3231 4.66731 30.6984 3.52774C23.3923 2.27075 16.6244 3.6063 10.4863 7.56148C9.2407 8.36408 8.16808 9.35708 7.0972 10.3495C6.84652 10.5816 6.63943 10.8798 6.08936 11.0317C6.75 9.91336 7.59186 9.1346 8.45225 8.38878C11.1186 6.07687 13.945 3.94782 17.3221 2.60816C27.2247 -1.32078 36.7906 -1.0712 45.591 5.14734C50.9418 8.92859 54.1367 14.0584 55.1611 20.3186C56.3361 27.4995 54.3362 33.8476 49.4581 39.4306C48.6066 40.4048 47.7984 41.4853 46.4625 41.9928L46.4571 41.9875Z" fill="#350079"/>
<path d="M15.5229 44.2288C23.3881 49.5104 31.7589 50.0952 40.4979 46.6407C45.4943 44.6655 49.3927 41.3944 52.2842 37.1186C58.1162 28.4948 58.0233 16.3289 49.3626 7.30688C50.1257 7.37121 50.562 7.83074 50.9546 8.22458C53.2286 10.506 55.2369 12.9725 56.672 15.8088C58.9133 20.2374 59.9869 24.9148 59.5331 29.7868C59.0656 34.805 57.1086 39.3162 53.568 43.2052C49.5778 47.5885 44.5668 50.361 38.5509 51.351C30.8068 52.6254 23.7809 50.9456 17.6184 46.2939C16.8402 45.7066 16.1184 45.0888 15.5229 44.2288Z" fill="#350079"/>
<path d="M45.2501 12.5601L45.3312 12.5999L45.2466 12.5629L45.2501 12.5601Z" fill="#350079"/>
<path d="M46.4632 41.9926L46.418 42.0689C46.4312 42.0418 46.4447 42.0149 46.4579 41.9875L46.4632 41.9926Z" fill="#350079"/>
<path d="M200.187 0.188477H198.706L189.343 19.2126H190.94L193.53 13.8592L194.11 12.6889L199.429 1.70886L204.782 12.6889L205.332 13.8592L207.953 19.2126H209.549L200.187 0.188477Z" fill="#350079"/>
<path d="M239.101 0.188477V19.2145H237.88L224.009 2.68928V19.2145H222.526V0.188477H223.776L237.618 16.715V0.188477H239.101Z" fill="#350079"/>
<path d="M254.378 18.4418C253.435 17.9755 252.638 17.2868 252.067 16.4441L252.968 15.5198C253.475 16.2502 254.157 16.8599 254.96 17.3005C255.726 17.7084 256.594 17.9195 257.475 17.9123C258.832 17.9123 259.845 17.5452 260.514 16.811C261.182 16.0768 261.517 14.9489 261.517 13.4274V1.2505H254.015V0H263V13.4279C263 15.3308 262.535 16.7622 261.604 17.7222C260.673 18.6822 259.297 19.1625 257.475 19.163C256.394 19.1683 255.33 18.9204 254.378 18.4418Z" fill="#350079"/>
<path d="M171.141 12.5522C172.673 12.1379 173.851 11.4179 174.674 10.3924C175.496 9.3711 175.907 8.10685 175.908 6.59965C175.908 4.58861 175.181 3.01736 173.727 1.88588C172.272 0.754405 170.266 0.188603 167.708 0.188477H160.41V1.43538H167.708C169.881 1.43538 171.539 1.88449 172.682 2.78271C173.825 3.68093 174.398 4.95324 174.399 6.59965C174.399 8.25273 173.827 9.52618 172.682 10.42C171.538 11.3168 169.88 11.7644 167.708 11.7628H160.41V19.2126H161.894V12.9904H167.708C168.37 12.985 169.031 12.9393 169.687 12.8537L174.545 19.2124H176.232L171.141 12.5522Z" fill="#350079"/>
<path d="M138.07 0.188477H136.59L127.227 19.2126H128.823L131.413 13.8592L131.994 12.6889L137.312 1.70886L142.665 12.6889L143.216 13.8592L145.836 19.2126H147.433L138.07 0.188477Z" fill="#350079"/>
<path d="M114.26 0.188477V19.2145H112.777V10.1639H99.1697V19.2147H97.686V0.188661H99.1697V8.94102H112.778V0.188477H114.26Z" fill="#350079"/>
<path d="M73.1218 18.5771C71.7745 18.0972 70.7229 17.4766 69.9668 16.7153L70.6359 15.6825C71.4527 16.45 72.4406 17.0395 73.5293 17.4088C74.7477 17.854 76.0452 18.0799 77.3534 18.0746C79.2913 18.0746 80.7549 17.7303 81.744 17.0417C82.2093 16.7422 82.5881 16.3398 82.8469 15.8704C83.1057 15.4009 83.2364 14.8791 83.2273 14.3511C83.2273 13.4996 82.9657 12.8201 82.4425 12.3127C81.8953 11.791 81.2292 11.3915 80.4938 11.1439C79.4664 10.8035 78.4177 10.5221 77.3536 10.3013C76.1358 10.0348 74.9367 9.69901 73.7628 9.29571C72.8752 8.97835 72.0858 8.45996 71.4655 7.78706C70.8352 7.10734 70.5202 6.19676 70.5206 5.05533C70.5134 4.155 70.7861 3.27211 71.3054 2.51386C71.8291 1.74399 72.6287 1.13248 73.7043 0.679336C74.7799 0.226191 76.1221 -0.000251957 77.7307 2.10377e-07C78.8541 -0.000170644 79.9713 0.155537 81.0458 0.462033C82.0516 0.734869 83.0041 1.15695 83.8667 1.71215L83.3141 2.82667C82.4909 2.2974 81.583 1.89364 80.6243 1.63045C79.6861 1.36445 78.7114 1.22722 77.7309 1.22307C75.8506 1.22307 74.4259 1.57611 73.4569 2.28218C72.9968 2.59722 72.6245 3.01107 72.3715 3.48881C72.1184 3.96654 71.992 4.49416 72.0029 5.02715C72.0029 5.87948 72.2646 6.55907 72.7881 7.06592C73.335 7.58765 74.0009 7.98719 74.736 8.23472C75.7744 8.5799 76.8327 8.87034 77.906 9.10469C79.1193 9.36975 80.3137 9.70573 81.482 10.1107C82.3586 10.4269 83.1413 10.9348 83.7647 11.5919C84.3947 12.2531 84.7096 13.1454 84.7096 14.269C84.718 15.1671 84.4397 16.0472 83.9102 16.7968C83.3767 17.5577 82.5578 18.1648 81.4533 18.6179C80.3488 19.0711 78.9918 19.2975 77.3823 19.2972C75.9269 19.3037 74.4826 19.0596 73.1218 18.5771Z" fill="#350079"/>
<path d="M161.421 37.4475H162.904V56.4736H161.421V37.4475Z" fill="#350079"/>
<path d="M174.488 55.4803C172.911 54.667 171.6 53.4692 170.694 52.0143C169.788 50.5129 169.312 48.8184 169.312 47.0948C169.312 45.3712 169.788 43.6767 170.694 42.1753C171.6 40.7206 172.911 39.523 174.488 38.7099C176.153 37.8822 178.009 37.4482 179.895 37.4458C181.781 37.4434 183.638 37.8728 185.305 38.6963C186.883 39.5019 188.196 40.6957 189.1 42.1484C190.005 43.6596 190.481 45.3628 190.481 47.0949C190.481 48.827 190.005 50.5302 189.1 52.0414C188.196 53.4945 186.884 54.6886 185.305 55.4942C183.638 56.3178 181.781 56.7471 179.895 56.7447C178.009 56.7424 176.153 56.3083 174.488 55.4806V55.4803ZM184.52 54.3799C185.877 53.673 187.003 52.6348 187.778 51.3762C188.559 50.0678 188.97 48.5941 188.97 47.0954C188.97 45.5967 188.559 44.1229 187.778 42.8145C187.003 41.556 185.877 40.5179 184.52 39.8112C183.096 39.0975 181.505 38.724 179.889 38.724C178.273 38.724 176.682 39.0975 175.258 39.8112C173.895 40.5147 172.764 41.5533 171.987 42.8145C171.205 44.1229 170.795 45.5967 170.795 47.0954C170.795 48.5941 171.205 50.0678 171.987 51.3762C172.764 52.6376 173.895 53.6763 175.259 54.3799C176.683 55.0936 178.273 55.4671 179.889 55.4671C181.505 55.4671 183.096 55.0936 184.52 54.3799H184.52Z" fill="#350079"/>
<path d="M199.985 56.024C198.637 55.5437 197.585 54.9232 196.83 54.1622L197.499 53.129C198.315 53.8967 199.303 54.4862 200.392 54.8554C201.61 55.3008 202.908 55.5268 204.216 55.5215C206.154 55.5215 207.618 55.177 208.607 54.4881C209.072 54.1886 209.451 53.7863 209.71 53.3169C209.968 52.8476 210.099 52.3257 210.09 51.7978C210.09 50.9463 209.828 50.2669 209.305 49.7594C208.758 49.2377 208.091 48.838 207.356 48.5902C206.329 48.25 205.28 47.9687 204.216 47.7481C202.998 47.4816 201.799 47.1458 200.625 46.7425C199.737 46.4251 198.948 45.9067 198.328 45.2338C197.697 44.5542 197.382 43.6434 197.382 42.5015C197.375 41.6011 197.648 40.7182 198.167 39.96C198.69 39.1902 199.49 38.5787 200.566 38.1255C201.642 37.6724 202.984 37.4458 204.593 37.4458C205.716 37.4458 206.833 37.6017 207.908 37.9084C208.914 38.1809 209.866 38.603 210.728 39.1585L210.176 40.273C209.353 39.7437 208.445 39.34 207.486 39.0768C206.548 38.8107 205.573 38.6734 204.593 38.6691C202.712 38.6691 201.288 39.0225 200.318 39.7293C199.858 40.0444 199.486 40.4583 199.233 40.936C198.98 41.4137 198.854 41.9413 198.865 42.4743C198.865 43.3261 199.126 44.0057 199.65 44.513C200.197 45.0347 200.863 45.4343 201.598 45.6819C202.636 46.0268 203.694 46.3172 204.767 46.5518C205.981 46.8165 207.176 47.1524 208.344 47.5578C209.221 47.8738 210.003 48.3818 210.627 49.039C211.256 49.7002 211.571 50.5926 211.572 51.7161C211.58 52.6143 211.301 53.4945 210.772 54.2439C210.239 55.005 209.42 55.6119 208.315 56.0647C207.21 56.5174 205.853 56.744 204.244 56.7444C202.789 56.7507 201.345 56.5065 199.985 56.024Z" fill="#350079"/>
<path d="M153.836 42.0567C152.926 40.6153 151.601 39.4418 150.012 38.6702C148.376 37.8537 146.501 37.4461 144.387 37.4475H136.332V38.6984H144.271C146.151 38.6984 147.808 39.047 149.241 39.7441C150.626 40.3987 151.778 41.4143 152.559 42.6681C153.321 43.9869 153.721 45.4623 153.721 46.9613C153.721 48.4603 153.321 49.9357 152.559 51.2545C151.779 52.508 150.626 53.5225 149.241 54.1744C147.808 54.8741 146.151 55.2241 144.271 55.2242H137.816V47.7225H136.332V56.4717H144.387C146.499 56.4717 148.374 56.0641 150.012 55.249C151.6 54.4789 152.925 53.3068 153.836 51.8665C154.733 50.3677 155.204 48.679 155.204 46.9616C155.204 45.2442 154.733 43.5554 153.836 42.0567Z" fill="#350079"/>
<path d="M115.605 54.5171C114.181 53.1219 113.469 51.0834 113.469 48.4015V37.4475H114.951V48.3468C114.951 50.684 115.523 52.4327 116.667 53.5928C117.811 54.7529 119.468 55.3329 121.639 55.3328C123.791 55.3328 125.439 54.7528 126.583 53.5928C127.726 52.4328 128.298 50.6842 128.299 48.3468V37.4475H129.781V48.4015C129.781 51.0833 129.064 53.1217 127.629 54.5169C126.195 55.912 124.189 56.6095 121.611 56.6095C119.031 56.6095 117.029 55.912 115.605 54.5171Z" fill="#350079"/>
<path d="M98.3363 38.698H91.0088V37.4475H107.147V38.698H99.819V56.4737H98.3363V38.698Z" fill="#350079"/>
<path d="M73.1213 56.0234C71.774 55.5432 70.7224 54.9226 69.9663 54.1617L70.6354 53.1285C71.452 53.8961 72.4401 54.4856 73.5288 54.8548C74.7471 55.3003 76.0447 55.5263 77.3529 55.5209C79.291 55.5209 80.7545 55.1765 81.7435 54.4875C82.2088 54.188 82.5876 53.7857 82.8464 53.3164C83.1052 52.847 83.2359 52.3252 83.2269 51.7972C83.2269 50.9458 82.9652 50.2663 82.442 49.7588C81.8946 49.2372 81.2285 48.8375 80.4931 48.5897C79.4657 48.2494 78.417 47.9682 77.3529 47.7475C76.1352 47.481 74.936 47.1452 73.7621 46.7419C72.8745 46.4245 72.0851 45.9061 71.4648 45.2332C70.8345 44.5535 70.5195 43.6429 70.5199 42.5015C70.5126 41.6012 70.7853 40.7183 71.3048 39.96C71.8284 39.1902 72.628 38.5787 73.7036 38.1255C74.7792 37.6724 76.1214 37.4458 77.7301 37.4458C78.8535 37.4458 79.9707 37.6017 81.0451 37.9084C82.0511 38.1809 83.0036 38.603 83.866 39.1585L83.3134 40.273C82.4902 39.7441 81.5824 39.3407 80.6238 39.0778C79.6856 38.8116 78.711 38.6743 77.7305 38.67C75.8501 38.67 74.4254 39.0234 73.4564 39.7303C72.9963 40.0453 72.624 40.4591 72.3709 40.9368C72.1179 41.4146 71.9915 41.9422 72.0024 42.4752C72.0024 43.327 72.2642 44.0066 72.7877 44.514C73.3346 45.0356 74.0004 45.4351 74.7355 45.6828C75.774 46.0278 76.8323 46.3182 77.9055 46.5528C79.119 46.8175 80.3135 47.1534 81.4817 47.5587C82.3584 47.8748 83.1412 48.3827 83.7645 49.04C84.3944 49.7011 84.7094 50.5935 84.7094 51.717C84.7176 52.6152 84.4393 53.4953 83.9099 54.2449C83.3763 55.0059 82.5573 55.6128 81.453 56.0656C80.3487 56.5184 78.9917 56.7449 77.382 56.7453C75.9264 56.7513 74.4821 56.5066 73.1213 56.0234Z" fill="#350079"/>
</svg>
