<svg width="120" height="120" viewBox="0 0 120 120" fill="none" xmlns="http://www.w3.org/2000/svg">
<path d="M92.5 112.5H12.5C11.1743 112.499 9.90332 111.971 8.96593 111.034C8.02853 110.097 7.50132 108.826 7.5 107.5V12.5C7.50132 11.1743 8.02853 9.90332 8.96593 8.96593C9.90332 8.02853 11.1743 7.50132 12.5 7.5H92.5C93.8257 7.50132 95.0967 8.02853 96.0341 8.96593C96.9715 9.90332 97.4987 11.1743 97.5 12.5V35C97.5 35.663 97.2366 36.2989 96.7678 36.7678C96.2989 37.2366 95.663 37.5 95 37.5C94.337 37.5 93.7011 37.2366 93.2322 36.7678C92.7634 36.2989 92.5 35.663 92.5 35V12.5H12.5V107.5H92.5V67.5C92.5 66.837 92.7634 66.2011 93.2322 65.7322C93.7011 65.2634 94.337 65 95 65C95.663 65 96.2989 65.2634 96.7678 65.7322C97.2366 66.2011 97.5 66.837 97.5 67.5V107.5C97.4987 108.826 96.9715 110.097 96.0341 111.034C95.0967 111.971 93.8257 112.499 92.5 112.5Z" fill="white"/>
<path d="M95 27.5H10C9.33696 27.5 8.70107 27.2366 8.23223 26.7678C7.76339 26.2989 7.5 25.663 7.5 25C7.5 24.337 7.76339 23.7011 8.23223 23.2322C8.70107 22.7634 9.33696 22.5 10 22.5H95C95.663 22.5 96.2989 22.7634 96.7678 23.2322C97.2366 23.7011 97.5 24.337 97.5 25C97.5 25.663 97.2366 26.2989 96.7678 26.7678C96.2989 27.2366 95.663 27.5 95 27.5Z" fill="white"/>
<path d="M25 20C26.3807 20 27.5 18.8807 27.5 17.5C27.5 16.1193 26.3807 15 25 15C23.6193 15 22.5 16.1193 22.5 17.5C22.5 18.8807 23.6193 20 25 20Z" fill="white"/>
<path d="M35 20C36.3807 20 37.5 18.8807 37.5 17.5C37.5 16.1193 36.3807 15 35 15C33.6193 15 32.5 16.1193 32.5 17.5C32.5 18.8807 33.6193 20 35 20Z" fill="white"/>
<path d="M45 20C46.3807 20 47.5 18.8807 47.5 17.5C47.5 16.1193 46.3807 15 45 15C43.6193 15 42.5 16.1193 42.5 17.5C42.5 18.8807 43.6193 20 45 20Z" fill="white"/>
<path d="M32.5 52.5H22.5C21.1743 52.4987 19.9033 51.9715 18.9659 51.0341C18.0285 50.0967 17.5013 48.8257 17.5 47.5V37.5C17.5013 36.1743 18.0285 34.9033 18.9659 33.9659C19.9033 33.0285 21.1743 32.5013 22.5 32.5H32.5C33.8257 32.5013 35.0967 33.0285 36.0341 33.9659C36.9715 34.9033 37.4987 36.1743 37.5 37.5V47.5C37.4987 48.8257 36.9715 50.0967 36.0341 51.0341C35.0967 51.9715 33.8257 52.4987 32.5 52.5V52.5ZM22.5 37.5V47.5H32.505L32.5 37.5H22.5ZM75 40H45C44.337 40 43.7011 39.7366 43.2322 39.2678C42.7634 38.7989 42.5 38.163 42.5 37.5C42.5 36.837 42.7634 36.2011 43.2322 35.7322C43.7011 35.2634 44.337 35 45 35H75C75.663 35 76.2989 35.2634 76.7678 35.7322C77.2366 36.2011 77.5 36.837 77.5 37.5C77.5 38.163 77.2366 38.7989 76.7678 39.2678C76.2989 39.7366 75.663 40 75 40ZM75 50H45C44.337 50 43.7011 49.7366 43.2322 49.2678C42.7634 48.7989 42.5 48.163 42.5 47.5C42.5 46.837 42.7634 46.2011 43.2322 45.7322C43.7011 45.2634 44.337 45 45 45H75C75.663 45 76.2989 45.2634 76.7678 45.7322C77.2366 46.2011 77.5 46.837 77.5 47.5C77.5 48.163 77.2366 48.7989 76.7678 49.2678C76.2989 49.7366 75.663 50 75 50ZM32.5 77.5H22.5C21.1743 77.4987 19.9033 76.9715 18.9659 76.0341C18.0285 75.0967 17.5013 73.8257 17.5 72.5V62.5C17.5013 61.1743 18.0285 59.9033 18.9659 58.9659C19.9033 58.0285 21.1743 57.5013 22.5 57.5H32.5C33.8257 57.5013 35.0967 58.0285 36.0341 58.9659C36.9715 59.9033 37.4987 61.1743 37.5 62.5V72.5C37.4987 73.8257 36.9715 75.0967 36.0341 76.0341C35.0967 76.9715 33.8257 77.4987 32.5 77.5V77.5ZM22.5 62.5V72.5H32.505L32.5 62.5H22.5ZM70 65H45C44.337 65 43.7011 64.7366 43.2322 64.2678C42.7634 63.7989 42.5 63.163 42.5 62.5C42.5 61.837 42.7634 61.2011 43.2322 60.7322C43.7011 60.2634 44.337 60 45 60H70C70.663 60 71.2989 60.2634 71.7678 60.7322C72.2366 61.2011 72.5 61.837 72.5 62.5C72.5 63.163 72.2366 63.7989 71.7678 64.2678C71.2989 64.7366 70.663 65 70 65ZM65 75H45C44.337 75 43.7011 74.7366 43.2322 74.2678C42.7634 73.7989 42.5 73.163 42.5 72.5C42.5 71.837 42.7634 71.2011 43.2322 70.7322C43.7011 70.2634 44.337 70 45 70H65C65.663 70 66.2989 70.2634 66.7678 70.7322C67.2366 71.2011 67.5 71.837 67.5 72.5C67.5 73.163 67.2366 73.7989 66.7678 74.2678C66.2989 74.7366 65.663 75 65 75ZM32.5 102.5H22.5C21.1743 102.499 19.9033 101.971 18.9659 101.034C18.0285 100.097 17.5013 98.8257 17.5 97.5V87.5C17.5013 86.1743 18.0285 84.9033 18.9659 83.9659C19.9033 83.0285 21.1743 82.5013 22.5 82.5H32.5C33.8257 82.5013 35.0967 83.0285 36.0341 83.9659C36.9715 84.9033 37.4987 86.1743 37.5 87.5V97.5C37.4987 98.8257 36.9715 100.097 36.0341 101.034C35.0967 101.971 33.8257 102.499 32.5 102.5V102.5ZM22.5 87.5V97.5H32.505L32.5 87.5H22.5ZM57.5 90H45C44.337 90 43.7011 89.7366 43.2322 89.2678C42.7634 88.7989 42.5 88.163 42.5 87.5C42.5 86.837 42.7634 86.2011 43.2322 85.7322C43.7011 85.2634 44.337 85 45 85H57.5C58.163 85 58.7989 85.2634 59.2678 85.7322C59.7366 86.2011 60 86.837 60 87.5C60 88.163 59.7366 88.7989 59.2678 89.2678C58.7989 89.7366 58.163 90 57.5 90ZM70 100H45C44.337 100 43.7011 99.7366 43.2322 99.2678C42.7634 98.7989 42.5 98.163 42.5 97.5C42.5 96.837 42.7634 96.2011 43.2322 95.7322C43.7011 95.2634 44.337 95 45 95H70C70.663 95 71.2989 95.2634 71.7678 95.7322C72.2366 96.2011 72.5 96.837 72.5 97.5C72.5 98.163 72.2366 98.7989 71.7678 99.2678C71.2989 99.7366 70.663 100 70 100Z" fill="white"/>
<path d="M70.1425 98.2876C69.5975 98.2871 69.0675 98.1086 68.6334 97.7791C68.1992 97.4496 67.8846 96.9873 67.7375 96.4626L64.8575 86.2551C64.6776 85.617 64.7585 84.9335 65.0825 84.3551L94.4075 32.0101C94.7282 31.4368 95.1588 30.9325 95.6747 30.5258C96.1905 30.1191 96.7815 29.8182 97.4137 29.6401C98.046 29.462 98.7071 29.4103 99.3594 29.4879C100.012 29.5656 100.642 29.771 101.215 30.0926L109.94 34.9801C110.513 35.3011 111.017 35.7318 111.424 36.2477C111.83 36.7635 112.131 37.3544 112.309 37.9866C112.487 38.6188 112.539 39.2798 112.461 39.932C112.384 40.5842 112.179 41.2147 111.857 41.7876L82.5325 94.1326C82.2081 94.7103 81.6677 95.1356 81.03 95.3151L70.82 98.1926C70.5996 98.2554 70.3716 98.2873 70.1425 98.2876V98.2876ZM69.9525 85.8951L71.87 92.7026L78.6775 90.7851L107.495 39.3401L98.77 34.4551L69.9525 85.8951Z" fill="white"/>
<path d="M106.008 49.6076C105.581 49.6069 105.162 49.4967 104.79 49.2876L91.7026 41.9576C91.1241 41.6334 90.6981 41.0926 90.5183 40.4543C90.3385 39.816 90.4196 39.1324 90.7438 38.5539C91.0681 37.9754 91.6088 37.5493 92.2471 37.3695C92.8855 37.1897 93.5691 37.2709 94.1476 37.5951L107.233 44.9251C107.716 45.1952 108.096 45.6183 108.313 46.1278C108.53 46.6373 108.572 47.2045 108.432 47.7404C108.292 48.2762 107.978 48.7503 107.539 49.0882C107.1 49.4262 106.561 49.6089 106.008 49.6076V49.6076ZM85.2376 86.6826C84.8104 86.683 84.3904 86.5736 84.0176 86.3651L70.9301 79.0351C70.6436 78.8746 70.3916 78.6592 70.1884 78.4012C69.9852 78.1433 69.8348 77.8479 69.7458 77.5318C69.6567 77.2157 69.6308 76.8852 69.6695 76.5591C69.7082 76.2331 69.8108 75.9178 69.9713 75.6314C70.1319 75.3449 70.3472 75.0929 70.6052 74.8897C70.8631 74.6865 71.1586 74.5361 71.4746 74.447C71.7907 74.358 72.1212 74.3321 72.4473 74.3708C72.7734 74.4095 73.0886 74.5121 73.3751 74.6726L86.4626 82.0026C86.9461 82.2727 87.3262 82.6958 87.5433 83.2053C87.7603 83.7148 87.8021 84.282 87.6619 84.8179C87.5217 85.3537 87.2076 85.8278 86.7688 86.1657C86.33 86.5037 85.7914 86.6864 85.2376 86.6851V86.6826Z" fill="white"/>
</svg>
