<svg width="616" height="541" viewBox="0 0 616 541" fill="none" xmlns="http://www.w3.org/2000/svg">
<path d="M8.88617 277.217C8.85866 277.52 8.76237 277.809 8.59729 278.084C8.45973 278.332 8.23964 278.442 7.937 278.414C7.46929 278.387 7.05661 278.208 6.69895 277.878C6.36881 277.548 6.20373 277.272 6.20373 277.052C6.23124 274.659 6.14871 272.224 5.95612 269.748C5.79105 267.244 5.51593 264.754 5.13076 262.278C5.13076 262.168 5.15827 262.044 5.21329 261.907C5.26832 261.797 5.3371 261.673 5.41964 261.536C5.50217 261.37 5.63973 261.219 5.83232 261.082C6.0249 260.999 6.23125 261.013 6.45134 261.123C6.69895 261.233 6.93281 261.398 7.1529 261.618C7.373 261.838 7.56559 262.086 7.73066 262.361C7.89573 262.636 8.01954 262.897 8.10207 263.145C8.18461 263.695 8.26715 264.3 8.34968 264.961C8.43222 265.621 8.501 266.309 8.55603 267.024C9.21632 266.667 9.8491 266.268 10.4544 265.827C11.0596 265.387 11.5824 264.906 12.0226 264.383C12.4903 263.86 12.8479 263.324 13.0955 262.774C13.3431 262.196 13.4257 261.604 13.3431 260.999C13.2881 260.531 13.0818 260.105 12.7241 259.72C12.3665 259.335 11.8162 259.046 11.0734 258.853C9.36764 258.468 7.84071 258.454 6.49261 258.812C5.14451 259.142 3.85144 259.706 2.61339 260.504C2.25573 260.779 1.92559 260.944 1.62295 260.999C1.32032 261.054 1.05895 261.04 0.838854 260.958C0.618757 260.875 0.453683 260.751 0.343635 260.586C0.233586 260.421 0.178561 260.256 0.178561 260.091C0.233586 259.458 0.53622 258.894 1.08646 258.399C1.66422 257.876 2.26949 257.436 2.90227 257.079C3.72764 256.666 4.74559 256.322 5.95612 256.047C7.16666 255.772 8.3772 255.675 9.58773 255.758C10.8258 255.813 11.9813 256.102 13.0543 256.625C14.1272 257.147 14.9526 257.986 15.5304 259.142C16.0531 260.518 16.1631 261.756 15.8605 262.856C15.5854 263.957 15.0764 264.961 14.3336 265.869C13.5908 266.777 12.7104 267.616 11.6924 268.386C10.6745 269.129 9.71154 269.817 8.80364 270.449C8.85866 271.66 8.88617 272.843 8.88617 273.999C8.91368 275.154 8.91368 276.227 8.88617 277.217ZM31.1814 262.897C30.6862 263.172 30.1634 263.461 29.6132 263.764C29.0904 264.067 28.554 264.424 28.0037 264.837C27.481 265.222 26.972 265.69 26.4768 266.24C26.0091 266.763 25.5826 267.396 25.1975 268.138C24.6472 269.184 24.2758 270.257 24.0832 271.357C23.8906 272.43 23.7668 273.49 23.7118 274.535C23.7118 275.03 23.588 275.539 23.3404 276.062C23.1203 276.557 22.8039 276.805 22.3912 276.805C21.8685 276.805 21.4421 276.543 21.1119 276.021C20.8093 275.47 20.6029 274.948 20.4929 274.452C20.0252 272.499 19.64 270.573 19.3374 268.675C19.0347 266.749 18.7734 264.837 18.5533 262.939C18.5533 262.553 18.6633 262.306 18.8834 262.196C19.131 262.086 19.4061 262.044 19.7088 262.072C20.0389 262.1 20.3553 262.182 20.658 262.32C20.9606 262.457 21.1394 262.677 21.1944 262.98C21.3045 263.998 21.4421 265.071 21.6071 266.199C21.7722 267.299 21.9373 268.248 22.1023 269.046C22.2124 268.111 22.515 267.203 23.0102 266.323C23.5055 265.442 24.1107 264.644 24.8261 263.929C25.5689 263.214 26.3942 262.608 27.3021 262.113C28.2376 261.618 29.1867 261.288 30.1497 261.123C30.5623 261.068 30.9062 261.068 31.1814 261.123C31.4565 261.178 31.6491 261.274 31.7591 261.412C31.8692 261.549 31.8829 261.769 31.8004 262.072C31.7454 262.375 31.539 262.65 31.1814 262.897ZM43.1647 262.732C43.99 263.035 44.6778 263.489 45.2281 264.094C45.8058 264.699 46.246 265.387 46.5487 266.158C46.8513 266.9 47.0164 267.671 47.0439 268.469C47.0989 269.266 47.0164 270.009 46.7963 270.697C46.4936 271.467 46.1085 272.224 45.6407 272.967C45.173 273.71 44.6366 274.37 44.0313 274.948C43.426 275.525 42.7382 275.993 41.9679 276.351C41.1975 276.708 40.3447 276.887 39.4092 276.887C38.2812 276.887 37.3321 276.626 36.5617 276.103C35.7914 275.58 35.1861 274.906 34.7459 274.081C34.3057 273.256 34.0168 272.32 33.8793 271.275C33.7692 270.229 33.7967 269.184 33.9618 268.138C34.0719 267.368 34.2507 266.625 34.4983 265.91C34.7734 265.167 35.1173 264.521 35.53 263.97C35.9427 263.393 36.4104 262.925 36.9331 262.567C37.4834 262.21 38.1024 262.031 38.7902 262.031C39.1754 262.031 39.6568 262.113 40.2346 262.278C40.8124 262.416 41.3488 262.622 41.8441 262.897C42.2017 262.567 42.6419 262.512 43.1647 262.732ZM41.5965 265.745C41.2938 265.552 40.9362 265.305 40.5235 265.002C40.1383 264.672 39.7944 264.507 39.4918 264.507C39.1616 264.507 38.8315 264.658 38.5013 264.961C38.1987 265.263 37.9236 265.621 37.676 266.034C37.4559 266.419 37.2633 266.818 37.0982 267.231C36.9331 267.643 36.8231 267.973 36.7681 268.221C36.6855 268.634 36.6305 269.129 36.603 269.707C36.5755 270.284 36.6167 270.862 36.7268 271.44C36.8368 271.99 37.0432 272.499 37.3458 272.967C37.676 273.407 38.1574 273.723 38.7902 273.916C39.1754 274.026 39.6293 274.026 40.1521 273.916C40.6748 273.778 41.1838 273.545 41.679 273.214C42.2017 272.884 42.6832 272.444 43.1234 271.894C43.5911 271.344 43.9487 270.711 44.1964 269.996C44.4715 269.198 44.4715 268.372 44.1964 267.519C43.9487 266.639 43.426 266.006 42.6282 265.621C42.4356 265.759 42.243 265.827 42.0504 265.827C41.8578 265.827 41.7065 265.8 41.5965 265.745ZM57.3319 256.212C57.2494 255.717 57.2769 255.263 57.4145 254.85C57.5795 254.437 57.8959 254.204 58.3636 254.148C58.7763 254.093 59.134 254.204 59.4366 254.479C59.7668 254.754 59.9731 255.111 60.0556 255.552C60.6059 258.716 61.1149 261.866 61.5826 265.002C62.0778 268.111 62.518 271.165 62.9031 274.164C63.0132 274.961 62.9582 275.512 62.7381 275.814C62.518 276.089 62.2566 276.296 61.954 276.433C61.6238 276.571 61.3074 276.571 61.0048 276.433C60.7297 276.296 60.5509 276.048 60.4683 275.691L60.427 275.443L60.262 275.484C59.3541 275.814 58.4049 276.007 57.4145 276.062C56.424 276.089 55.4749 275.966 54.567 275.691C53.659 275.415 52.8474 274.975 52.1321 274.37C51.4443 273.737 50.9491 272.939 50.6465 271.976C49.9862 269.858 50.3989 267.932 51.8845 266.199C52.5173 265.484 53.3014 264.837 54.2368 264.259C55.1722 263.681 56.3002 263.228 57.6208 262.897L58.3636 262.732L57.3319 256.212ZM53.1638 270.945C53.3289 271.605 53.6315 272.114 54.0717 272.472C54.5119 272.829 55.0347 273.077 55.6399 273.214C56.2452 273.324 56.8917 273.338 57.5795 273.256C58.2673 273.173 58.9414 273.022 59.6017 272.802L59.9731 272.678L58.8176 265.415L57.9922 265.621C57.4145 265.786 56.7954 266.048 56.1351 266.405C55.5024 266.735 54.9384 267.134 54.4431 267.602C53.9479 268.07 53.5628 268.592 53.2876 269.17C53.04 269.748 52.9988 270.339 53.1638 270.945ZM68.6568 264.92C68.4918 265.662 68.3267 266.488 68.1616 267.396C67.9966 268.276 67.8728 269.129 67.7902 269.954C67.7352 270.78 67.7352 271.522 67.7902 272.183C67.8728 272.843 68.0516 273.311 68.3267 273.586C68.7944 273.668 69.3309 273.476 69.9362 273.008C70.5414 272.513 71.1329 271.894 71.7107 271.151C72.2885 270.408 72.8112 269.61 73.2789 268.757C73.7466 267.877 74.0768 267.107 74.2693 266.446C74.3794 266.116 74.4757 265.772 74.5582 265.415C74.6408 265.057 74.682 264.686 74.682 264.3C74.682 264.08 74.8196 263.874 75.0947 263.681C75.3973 263.461 75.6449 263.338 75.8375 263.31C75.9751 263.283 76.1264 263.31 76.2915 263.393C76.4841 263.475 76.6491 263.599 76.7867 263.764C76.9518 263.902 77.0893 264.08 77.1994 264.3C77.3369 264.493 77.4057 264.699 77.4057 264.92C77.4608 265.745 77.5433 266.653 77.6533 267.643C77.7634 268.634 77.8872 269.624 78.0248 270.615C78.1898 271.605 78.3549 272.568 78.52 273.503C78.685 274.439 78.8501 275.278 79.0152 276.021C79.0977 276.323 79.0152 276.667 78.7676 277.052C78.52 277.438 78.2448 277.671 77.9422 277.754C77.6946 277.809 77.4332 277.781 77.1581 277.671C76.9105 277.561 76.7179 277.341 76.5804 277.011C76.4428 276.626 76.3052 276.158 76.1677 275.608C76.0576 275.03 75.9476 274.439 75.8375 273.833C75.755 273.201 75.6725 272.609 75.5899 272.059C75.5074 271.481 75.4524 271 75.4248 270.615C75.0122 271.357 74.5169 272.114 73.9392 272.884C73.3889 273.627 72.7837 274.315 72.1234 274.948C71.4906 275.553 70.8166 276.034 70.1012 276.392C69.4134 276.722 68.6981 276.846 67.9553 276.764C66.8548 276.626 66.0157 275.594 65.4379 273.668C65.2178 272.898 65.1078 272.045 65.1078 271.11C65.1353 270.174 65.2041 269.253 65.3141 268.345C65.4517 267.409 65.603 266.529 65.7681 265.704C65.9607 264.878 66.1257 264.204 66.2633 263.681C66.3183 263.461 66.4284 263.269 66.5934 263.104C66.7585 262.911 66.9511 262.842 67.1712 262.897C67.5839 262.98 67.9553 263.228 68.2854 263.64C68.6431 264.053 68.7669 264.479 68.6568 264.92ZM91.5259 266.529C91.3333 266.639 91.0995 266.68 90.8244 266.653C90.5492 266.598 90.3154 266.419 90.1228 266.116C89.6826 265.539 89.1461 265.25 88.5133 265.25C87.9356 265.25 87.4129 265.387 86.9452 265.662C86.505 265.91 86.106 266.254 85.7484 266.694C85.4182 267.107 85.1431 267.574 84.923 268.097C84.7029 268.62 84.5516 269.143 84.4691 269.665C84.3315 270.628 84.4966 271.44 84.9643 272.1C85.432 272.76 86.1611 273.091 87.1515 273.091C87.9493 273.118 88.8435 272.967 89.8339 272.637C90.8519 272.279 91.8011 271.825 92.6814 271.275C93.0666 271.11 93.4243 271.013 93.7544 270.986C94.0846 270.958 94.3597 271.124 94.5798 271.481C94.8549 271.921 94.7861 272.375 94.3734 272.843C93.9608 273.283 93.4105 273.682 92.7227 274.04C92.0349 274.425 91.3058 274.769 90.5355 275.072C89.7927 275.347 89.0361 275.553 88.2657 275.691C87.4954 275.801 86.7251 275.801 85.9547 275.691C85.2119 275.58 84.5103 275.319 83.85 274.906C82.8046 274.191 82.1718 273.173 81.9517 271.853C81.7316 270.532 81.8279 269.17 82.2406 267.767C82.4056 267.244 82.6395 266.722 82.9421 266.199C83.2448 265.649 83.6024 265.153 84.0151 264.713C84.4553 264.273 84.9368 263.902 85.4595 263.599C85.9822 263.269 86.56 263.049 87.1928 262.939C88.2107 262.774 89.1874 262.884 90.1228 263.269C91.0582 263.626 91.6773 264.3 91.9799 265.291C92.0349 265.511 92.0349 265.745 91.9799 265.992C91.9249 266.213 91.7735 266.391 91.5259 266.529ZM106.354 266.075C106.877 266.048 107.399 266.171 107.922 266.446C108.445 266.722 108.706 267.148 108.706 267.726C108.651 268.193 108.39 268.496 107.922 268.634C107.482 268.744 107.124 268.799 106.849 268.799C106.299 268.799 105.707 268.812 105.075 268.84C104.442 268.868 103.795 268.909 103.135 268.964C103.08 269.872 103.025 270.725 102.97 271.522C102.942 272.32 102.915 273.036 102.887 273.668C102.86 274.274 102.846 274.769 102.846 275.154C102.846 275.539 102.86 275.746 102.887 275.773C103.493 275.663 104.139 275.484 104.827 275.237C105.542 274.961 106.244 274.673 106.932 274.37C107.647 274.04 108.335 273.71 108.995 273.38C109.683 273.022 110.329 272.692 110.935 272.389C111.21 272.252 111.457 272.21 111.677 272.265C111.925 272.32 112.076 272.444 112.131 272.637C112.186 272.939 112.145 273.311 112.008 273.751C111.87 274.191 111.622 274.59 111.265 274.948C110.852 275.278 110.302 275.663 109.614 276.103C108.954 276.516 108.238 276.915 107.468 277.3C106.698 277.685 105.914 278.029 105.116 278.332C104.345 278.607 103.658 278.772 103.052 278.827C102.144 278.909 101.457 278.662 100.989 278.084C100.521 277.506 100.26 276.777 100.205 275.897C100.15 275.016 100.136 273.999 100.164 272.843C100.219 271.688 100.274 270.463 100.329 269.17C99.8059 269.225 99.2969 269.28 98.8017 269.335C98.334 269.363 97.8801 269.404 97.4399 269.459C97.0822 269.459 96.6833 269.376 96.2431 269.211C95.8304 269.046 95.6241 268.73 95.6241 268.262C95.6241 268.097 95.6928 267.877 95.8304 267.602C95.968 267.327 96.2706 267.12 96.7383 266.983C97.8663 266.79 99.1181 266.625 100.494 266.488C100.576 265.195 100.673 263.943 100.783 262.732C100.893 261.522 100.989 260.421 101.071 259.431C101.099 259.101 101.195 258.812 101.36 258.564C101.525 258.317 101.704 258.193 101.897 258.193C102.365 258.165 102.805 258.289 103.217 258.564C103.658 258.812 103.878 259.101 103.878 259.431C103.768 260.366 103.658 261.425 103.548 262.608C103.465 263.792 103.383 265.002 103.3 266.24C103.85 266.185 104.373 266.158 104.868 266.158C105.391 266.13 105.886 266.103 106.354 266.075ZM146.115 278.662C145.812 278.662 145.496 278.428 145.166 277.96C144.863 277.493 144.698 277.039 144.67 276.598C144.45 275.003 144.175 273.146 143.845 271.027C143.542 268.881 143.13 266.35 142.607 263.434C141.782 265.002 140.97 266.556 140.172 268.097C139.374 269.638 138.577 271.179 137.779 272.719C137.283 273.682 136.774 274.164 136.252 274.164C135.481 274.164 134.876 273.765 134.436 272.967C133.473 271.564 132.469 270.257 131.423 269.046C130.405 267.808 129.346 266.584 128.246 265.373C128.191 267.217 128.204 269.033 128.287 270.821C128.397 272.582 128.576 274.301 128.823 275.979C128.878 276.282 128.837 276.557 128.7 276.805C128.59 277.025 128.466 277.162 128.328 277.217C127.943 277.355 127.558 277.272 127.173 276.97C126.788 276.667 126.554 276.337 126.471 275.979C126.224 274.989 126.045 273.888 125.935 272.678C125.825 271.467 125.742 270.243 125.687 269.005C125.66 267.767 125.646 266.543 125.646 265.332C125.646 264.122 125.66 263.021 125.687 262.031C125.687 260.93 126.045 260.38 126.76 260.38C127.2 260.38 127.572 260.545 127.874 260.875C128.177 261.178 128.342 261.618 128.369 262.196C129.745 263.571 131.038 264.988 132.249 266.446C133.487 267.877 134.684 269.335 135.839 270.821C136.802 269.088 137.779 267.313 138.769 265.497C139.76 263.654 140.874 261.866 142.112 260.132C142.167 259.83 142.318 259.527 142.566 259.224C142.813 258.894 143.089 258.674 143.391 258.564C143.694 258.454 144.01 258.578 144.34 258.936C144.67 259.293 144.891 259.706 145.001 260.174C145.468 262.952 145.867 265.731 146.197 268.51C146.555 271.289 146.899 274.067 147.229 276.846C147.284 277.369 147.188 277.809 146.94 278.167C146.693 278.497 146.417 278.662 146.115 278.662ZM160.903 261.866C161.013 262.636 161.096 263.461 161.151 264.342C161.234 265.195 161.289 266.061 161.316 266.942C161.371 267.822 161.399 268.675 161.399 269.5C161.399 270.326 161.385 271.068 161.357 271.729C162.238 272.334 162.76 272.871 162.926 273.338C163.118 273.806 163.146 274.219 163.008 274.576C162.843 275.072 162.54 275.333 162.1 275.36C161.688 275.36 161.206 275.209 160.656 274.906C160.271 275.182 159.83 275.484 159.335 275.814C158.84 276.117 158.317 276.42 157.767 276.722C157.217 276.997 156.667 277.245 156.116 277.465C155.566 277.685 155.057 277.836 154.589 277.919C153.709 278.057 152.911 277.892 152.196 277.424C151.508 276.956 151.04 276.255 150.793 275.319C150.628 274.686 150.586 274.04 150.669 273.38C150.751 272.692 150.958 272.045 151.288 271.44C151.618 270.807 152.058 270.243 152.608 269.748C153.186 269.253 153.86 268.868 154.631 268.592C154.823 268.51 155.085 268.441 155.415 268.386C155.772 268.331 156.13 268.317 156.488 268.345C156.873 268.345 157.258 268.414 157.643 268.551C158.028 268.689 158.386 268.923 158.716 269.253C158.716 268.785 158.702 268.276 158.675 267.726C158.675 267.148 158.661 266.57 158.634 265.992C158.606 265.415 158.565 264.878 158.51 264.383C158.482 263.86 158.441 263.42 158.386 263.062C158.331 262.65 158.166 262.402 157.891 262.32C157.643 262.21 157.327 262.223 156.942 262.361C156.281 262.581 155.511 263.007 154.631 263.64C153.75 264.273 152.911 264.947 152.113 265.662C151.866 265.91 151.577 266.02 151.247 265.992C150.944 265.965 150.683 265.841 150.463 265.621C150.242 265.401 150.119 265.153 150.091 264.878C150.064 264.576 150.174 264.259 150.421 263.929C150.889 263.434 151.412 262.925 151.989 262.402C152.567 261.879 153.172 261.412 153.805 260.999C154.438 260.559 155.085 260.201 155.745 259.926C156.405 259.651 157.065 259.5 157.726 259.472C158.689 259.445 159.432 259.665 159.954 260.132C160.477 260.573 160.793 261.15 160.903 261.866ZM156.116 270.738C155.759 270.821 155.373 271 154.961 271.275C154.576 271.522 154.218 271.839 153.888 272.224C153.585 272.582 153.351 272.994 153.186 273.462C153.049 273.902 153.049 274.342 153.186 274.783C153.241 274.948 153.351 275.072 153.516 275.154C153.709 275.237 153.915 275.25 154.135 275.195C154.796 275.058 155.539 274.796 156.364 274.411C157.217 273.999 157.891 273.558 158.386 273.091C158.386 272.926 158.304 272.719 158.138 272.472C157.973 272.196 157.781 271.935 157.561 271.688C157.341 271.412 157.093 271.179 156.818 270.986C156.57 270.793 156.336 270.711 156.116 270.738ZM168.058 263.516C168.141 263.929 168.223 264.397 168.306 264.92C168.416 265.415 168.526 265.937 168.636 266.488C168.746 267.01 168.842 267.547 168.925 268.097C169.007 268.647 169.076 269.17 169.131 269.665C169.461 268.95 169.819 268.193 170.204 267.396C170.589 266.598 171.002 265.869 171.442 265.208C171.91 264.521 172.391 263.957 172.887 263.516C173.409 263.076 173.973 262.856 174.579 262.856C175.487 262.856 176.243 263.186 176.848 263.847C177.481 264.507 178.004 265.332 178.417 266.323C178.857 267.286 179.201 268.304 179.448 269.376C179.696 270.449 179.902 271.399 180.067 272.224C180.232 272.967 179.902 273.517 179.077 273.875C178.692 274.067 178.403 274.095 178.21 273.957C178.018 273.82 177.908 273.682 177.88 273.545C177.743 273.214 177.564 272.637 177.344 271.811C177.151 270.986 176.917 270.147 176.642 269.294C176.395 268.441 176.106 267.698 175.775 267.065C175.445 266.433 175.074 266.144 174.661 266.199C174.166 266.226 173.726 266.598 173.341 267.313C173.011 267.891 172.667 268.537 172.309 269.253C171.979 269.94 171.649 270.656 171.319 271.399C170.988 272.114 170.658 272.843 170.328 273.586C170.025 274.301 169.737 274.961 169.461 275.567C169.269 275.759 169.021 275.897 168.719 275.979C168.443 276.034 168.155 276.007 167.852 275.897C167.577 275.814 167.357 275.677 167.192 275.484C167.027 275.292 166.944 275.099 166.944 274.906C166.696 272.76 166.435 270.807 166.16 269.046C165.912 267.286 165.582 265.484 165.17 263.64C164.977 263.007 164.936 262.512 165.046 262.155C165.183 261.769 165.596 261.618 166.284 261.701C167.247 261.866 167.838 262.471 168.058 263.516ZM193.225 261.866C193.335 262.636 193.417 263.461 193.472 264.342C193.555 265.195 193.61 266.061 193.638 266.942C193.693 267.822 193.72 268.675 193.72 269.5C193.72 270.326 193.706 271.068 193.679 271.729C194.559 272.334 195.082 272.871 195.247 273.338C195.44 273.806 195.467 274.219 195.33 274.576C195.164 275.072 194.862 275.333 194.422 275.36C194.009 275.36 193.528 275.209 192.977 274.906C192.592 275.182 192.152 275.484 191.657 275.814C191.161 276.117 190.639 276.42 190.088 276.722C189.538 276.997 188.988 277.245 188.438 277.465C187.888 277.685 187.379 277.836 186.911 277.919C186.03 278.057 185.233 277.892 184.517 277.424C183.829 276.956 183.362 276.255 183.114 275.319C182.949 274.686 182.908 274.04 182.99 273.38C183.073 272.692 183.279 272.045 183.609 271.44C183.94 270.807 184.38 270.243 184.93 269.748C185.508 269.253 186.182 268.868 186.952 268.592C187.145 268.51 187.406 268.441 187.736 268.386C188.094 268.331 188.452 268.317 188.809 268.345C189.194 268.345 189.58 268.414 189.965 268.551C190.35 268.689 190.708 268.923 191.038 269.253C191.038 268.785 191.024 268.276 190.996 267.726C190.996 267.148 190.983 266.57 190.955 265.992C190.928 265.415 190.886 264.878 190.831 264.383C190.804 263.86 190.763 263.42 190.708 263.062C190.652 262.65 190.487 262.402 190.212 262.32C189.965 262.21 189.648 262.223 189.263 262.361C188.603 262.581 187.832 263.007 186.952 263.64C186.072 264.273 185.233 264.947 184.435 265.662C184.187 265.91 183.898 266.02 183.568 265.992C183.265 265.965 183.004 265.841 182.784 265.621C182.564 265.401 182.44 265.153 182.413 264.878C182.385 264.576 182.495 264.259 182.743 263.929C183.21 263.434 183.733 262.925 184.311 262.402C184.889 261.879 185.494 261.412 186.127 260.999C186.76 260.559 187.406 260.201 188.066 259.926C188.727 259.651 189.387 259.5 190.047 259.472C191.01 259.445 191.753 259.665 192.276 260.132C192.798 260.573 193.115 261.15 193.225 261.866ZM188.438 270.738C188.08 270.821 187.695 271 187.282 271.275C186.897 271.522 186.539 271.839 186.209 272.224C185.907 272.582 185.673 272.994 185.508 273.462C185.37 273.902 185.37 274.342 185.508 274.783C185.563 274.948 185.673 275.072 185.838 275.154C186.03 275.237 186.237 275.25 186.457 275.195C187.117 275.058 187.86 274.796 188.685 274.411C189.538 273.999 190.212 273.558 190.708 273.091C190.708 272.926 190.625 272.719 190.46 272.472C190.295 272.196 190.102 271.935 189.882 271.688C189.662 271.412 189.414 271.179 189.139 270.986C188.892 270.793 188.658 270.711 188.438 270.738ZM205.249 265.745C205.47 266.048 205.676 266.433 205.868 266.9C206.089 267.341 206.254 267.795 206.364 268.262C206.529 269.005 206.708 269.817 206.9 270.697C207.12 271.55 207.327 272.444 207.519 273.38C207.739 274.315 207.932 275.264 208.097 276.227C208.29 277.19 208.455 278.112 208.592 278.992C208.757 280.203 208.661 281.358 208.303 282.459C207.973 283.587 207.409 284.591 206.611 285.471C205.813 286.352 204.823 287.053 203.64 287.576C202.457 288.099 201.123 288.387 199.637 288.442C199.307 288.415 198.963 288.25 198.605 287.947C198.248 287.672 198.069 287.383 198.069 287.081C198.041 286.778 198.179 286.53 198.481 286.338C198.812 286.173 199.142 286.063 199.472 286.008C200.05 285.953 200.641 285.829 201.246 285.636C201.879 285.471 202.471 285.224 203.021 284.893C203.571 284.563 204.066 284.164 204.507 283.697C204.974 283.229 205.332 282.679 205.58 282.046C205.772 281.551 205.868 280.945 205.868 280.23C205.868 279.487 205.813 278.758 205.703 278.043C205.621 277.328 205.497 276.653 205.332 276.021C205.194 275.36 205.071 274.865 204.961 274.535C204.768 274.728 204.52 274.934 204.218 275.154C203.943 275.374 203.626 275.58 203.269 275.773C202.911 275.966 202.512 276.117 202.072 276.227C201.659 276.337 201.233 276.378 200.792 276.351C200.325 276.323 199.885 276.158 199.472 275.856C199.087 275.553 198.743 275.168 198.44 274.7C198.138 274.205 197.89 273.641 197.697 273.008C197.532 272.375 197.45 271.715 197.45 271.027C197.505 269.376 197.917 267.918 198.688 266.653C199.486 265.36 200.751 264.356 202.484 263.64C202.622 263.613 202.801 263.585 203.021 263.558C203.269 263.53 203.516 263.53 203.764 263.558C204.011 263.558 204.245 263.585 204.465 263.64C204.713 263.695 204.919 263.778 205.084 263.888C205.387 264.108 205.538 264.424 205.538 264.837C205.538 265.25 205.442 265.552 205.249 265.745ZM200.05 271.399C200.05 271.701 200.077 272.045 200.132 272.43C200.187 272.788 200.366 273.049 200.669 273.214C200.999 273.407 201.398 273.435 201.865 273.297C202.361 273.159 202.815 272.926 203.227 272.595C203.612 272.293 203.86 271.963 203.97 271.605C204.108 271.22 204.108 270.711 203.97 270.078C203.833 269.445 203.681 268.785 203.516 268.097C203.351 267.409 203.241 266.79 203.186 266.24C202.856 266.405 202.498 266.639 202.113 266.942C201.755 267.244 201.425 267.629 201.123 268.097C200.82 268.537 200.559 269.033 200.338 269.583C200.146 270.133 200.05 270.738 200.05 271.399ZM221.71 267.437C220.637 268.07 219.482 268.565 218.243 268.923C217.005 269.253 215.671 269.418 214.24 269.418C214.295 270.381 214.571 271.151 215.066 271.729C215.561 272.279 216.18 272.609 216.923 272.719C217.363 272.774 217.803 272.76 218.243 272.678C218.711 272.595 219.138 272.472 219.523 272.307C219.935 272.114 220.307 271.908 220.637 271.688C220.967 271.467 221.256 271.247 221.504 271.027C221.751 270.807 222.013 270.67 222.288 270.615C222.563 270.532 222.769 270.518 222.907 270.573C223.292 270.711 223.43 271.124 223.319 271.811C222.879 272.692 222.246 273.448 221.421 274.081C220.596 274.686 219.674 275.072 218.656 275.237C217.776 275.402 216.868 275.36 215.932 275.113C214.997 274.865 214.158 274.384 213.415 273.668C212.782 273.036 212.301 272.293 211.971 271.44C211.641 270.587 211.434 269.707 211.352 268.799C211.269 267.946 211.338 267.134 211.558 266.364C211.806 265.594 212.177 264.92 212.672 264.342C213.167 263.736 213.786 263.241 214.529 262.856C215.272 262.471 216.139 262.251 217.129 262.196C218.312 262.113 219.385 262.333 220.348 262.856C221.311 263.379 221.985 264.108 222.37 265.043C222.59 265.566 222.645 266.02 222.535 266.405C222.453 266.79 222.178 267.134 221.71 267.437ZM216.964 264.631C216.689 264.686 216.386 264.782 216.056 264.92C215.754 265.057 215.465 265.236 215.19 265.456C214.942 265.649 214.708 265.882 214.488 266.158C214.295 266.405 214.185 266.694 214.158 267.024C214.626 267.024 215.135 266.983 215.685 266.9C216.263 266.818 216.813 266.722 217.336 266.612C217.886 266.474 218.381 266.323 218.821 266.158C219.289 265.992 219.674 265.814 219.977 265.621C219.757 265.098 219.344 264.782 218.739 264.672C218.161 264.534 217.569 264.521 216.964 264.631ZM238.53 262.897C238.035 263.172 237.512 263.461 236.962 263.764C236.439 264.067 235.903 264.424 235.353 264.837C234.83 265.222 234.321 265.69 233.826 266.24C233.358 266.763 232.932 267.396 232.546 268.138C231.996 269.184 231.625 270.257 231.432 271.357C231.24 272.43 231.116 273.49 231.061 274.535C231.061 275.03 230.937 275.539 230.689 276.062C230.469 276.557 230.153 276.805 229.74 276.805C229.217 276.805 228.791 276.543 228.461 276.021C228.158 275.47 227.952 274.948 227.842 274.452C227.374 272.499 226.989 270.573 226.686 268.675C226.384 266.749 226.122 264.837 225.902 262.939C225.902 262.553 226.012 262.306 226.232 262.196C226.48 262.086 226.755 262.044 227.058 262.072C227.388 262.1 227.704 262.182 228.007 262.32C228.31 262.457 228.488 262.677 228.543 262.98C228.653 263.998 228.791 265.071 228.956 266.199C229.121 267.299 229.286 268.248 229.451 269.046C229.561 268.111 229.864 267.203 230.359 266.323C230.854 265.442 231.46 264.644 232.175 263.929C232.918 263.214 233.743 262.608 234.651 262.113C235.587 261.618 236.536 261.288 237.499 261.123C237.911 261.068 238.255 261.068 238.53 261.123C238.805 261.178 238.998 261.274 239.108 261.412C239.218 261.549 239.232 261.769 239.149 262.072C239.094 262.375 238.888 262.65 238.53 262.897Z" fill="#350079"/>
<path d="M305.365 257.395C304.952 257.56 304.594 257.574 304.292 257.436C303.989 257.299 303.769 257.12 303.632 256.9C303.439 256.625 303.384 256.336 303.466 256.033C303.549 255.73 303.783 255.469 304.168 255.249C304.801 254.891 305.599 254.602 306.562 254.382C307.524 254.135 308.556 254.066 309.657 254.176C310.757 254.286 311.761 254.589 312.669 255.084C313.605 255.552 314.389 256.157 315.022 256.9C315.682 257.643 316.177 258.495 316.507 259.458C316.865 260.394 317.03 261.384 317.002 262.43C316.947 263.53 316.727 264.631 316.342 265.731C315.984 266.832 315.476 267.863 314.815 268.826C314.182 269.789 313.412 270.67 312.504 271.467C311.624 272.238 310.647 272.843 309.574 273.283C308.831 273.476 308.267 273.503 307.882 273.366C307.497 273.228 307.236 273.063 307.098 272.871C307.043 272.733 307.016 272.554 307.016 272.334C307.043 272.086 307.194 271.839 307.469 271.591C307.139 268.923 306.933 266.35 306.85 263.874C306.795 261.37 306.768 259.087 306.768 257.024C306.3 257.106 305.832 257.23 305.365 257.395ZM309.863 256.858C309.698 256.831 309.519 256.817 309.327 256.817C309.161 256.79 308.996 256.776 308.831 256.776C308.996 256.996 309.134 257.271 309.244 257.601C309.354 257.904 309.409 258.207 309.409 258.509C309.409 260.187 309.423 261.99 309.45 263.915C309.505 265.841 309.643 267.918 309.863 270.147C311.074 269.266 312.105 268.166 312.958 266.845C313.839 265.497 314.306 264.08 314.361 262.595C314.389 261.219 314.045 260.009 313.33 258.963C312.614 257.89 311.459 257.189 309.863 256.858ZM330.138 263.998C329.065 264.631 327.91 265.126 326.672 265.484C325.434 265.814 324.099 265.979 322.669 265.979C322.724 266.942 322.999 267.712 323.494 268.29C323.989 268.84 324.608 269.17 325.351 269.28C325.791 269.335 326.232 269.322 326.672 269.239C327.14 269.156 327.566 269.033 327.951 268.868C328.364 268.675 328.735 268.469 329.065 268.249C329.396 268.028 329.684 267.808 329.932 267.588C330.18 267.368 330.441 267.231 330.716 267.176C330.991 267.093 331.198 267.079 331.335 267.134C331.72 267.272 331.858 267.685 331.748 268.372C331.308 269.253 330.675 270.009 329.849 270.642C329.024 271.247 328.102 271.633 327.084 271.798C326.204 271.963 325.296 271.921 324.361 271.674C323.425 271.426 322.586 270.945 321.843 270.229C321.211 269.597 320.729 268.854 320.399 268.001C320.069 267.148 319.863 266.268 319.78 265.36C319.697 264.507 319.766 263.695 319.986 262.925C320.234 262.155 320.605 261.481 321.101 260.903C321.596 260.298 322.215 259.802 322.958 259.417C323.7 259.032 324.567 258.812 325.558 258.757C326.741 258.674 327.814 258.894 328.776 259.417C329.739 259.94 330.413 260.669 330.799 261.604C331.019 262.127 331.074 262.581 330.964 262.966C330.881 263.351 330.606 263.695 330.138 263.998ZM325.392 261.192C325.117 261.247 324.815 261.343 324.485 261.481C324.182 261.618 323.893 261.797 323.618 262.017C323.37 262.21 323.136 262.443 322.916 262.719C322.724 262.966 322.614 263.255 322.586 263.585C323.054 263.585 323.563 263.544 324.113 263.461C324.691 263.379 325.241 263.283 325.764 263.173C326.314 263.035 326.809 262.884 327.25 262.719C327.717 262.554 328.102 262.375 328.405 262.182C328.185 261.659 327.772 261.343 327.167 261.233C326.589 261.095 325.998 261.082 325.392 261.192ZM342.337 261.357C342.282 261.054 342.227 260.765 342.172 260.49C342.117 260.215 341.979 260.036 341.759 259.954C341.291 259.816 340.796 259.802 340.273 259.912C339.751 260.022 339.269 260.201 338.829 260.449C338.389 260.669 338.017 260.93 337.715 261.233C337.412 261.508 337.247 261.756 337.219 261.976C337.137 262.388 337.247 262.787 337.55 263.173C337.852 263.558 338.292 263.943 338.87 264.328C339.833 264.906 340.837 265.497 341.883 266.103C342.928 266.708 343.809 267.327 344.524 267.96C345.239 268.592 345.721 269.294 345.968 270.064C346.243 270.807 346.188 271.66 345.803 272.623C345.501 273.366 344.937 273.971 344.111 274.439C343.286 274.906 342.378 275.278 341.387 275.553C340.397 275.801 339.407 275.979 338.416 276.09C337.426 276.172 336.587 276.213 335.899 276.213C335.734 276.213 335.527 276.158 335.28 276.048C335.06 275.911 334.84 275.759 334.619 275.594C334.427 275.429 334.248 275.264 334.083 275.099C333.945 274.906 333.877 274.741 333.877 274.604C333.877 274.109 334.097 273.765 334.537 273.572C334.977 273.38 335.431 273.283 335.899 273.283C336.559 273.283 337.261 273.256 338.003 273.201C338.774 273.118 339.503 273.008 340.191 272.871C340.879 272.706 341.498 272.499 342.048 272.252C342.598 272.004 342.983 271.688 343.203 271.302C343.396 270.972 343.272 270.587 342.832 270.147C342.419 269.679 341.855 269.198 341.14 268.702C340.452 268.207 339.695 267.726 338.87 267.258C338.072 266.79 337.384 266.364 336.807 265.979C336.229 265.594 335.734 265.14 335.321 264.617C334.908 264.067 334.647 263.393 334.537 262.595C334.509 261.879 334.661 261.192 334.991 260.531C335.321 259.871 335.747 259.293 336.27 258.798C336.82 258.275 337.439 257.863 338.127 257.56C338.815 257.257 339.503 257.106 340.191 257.106C341.374 257.161 342.35 257.491 343.121 258.097C343.891 258.674 344.345 259.541 344.483 260.696C344.483 261.082 344.414 261.398 344.276 261.646C344.166 261.893 343.96 262.045 343.657 262.1C343.272 262.155 342.956 262.113 342.708 261.976C342.488 261.811 342.364 261.604 342.337 261.357ZM355.537 256.858C355.482 257.134 355.289 257.285 354.959 257.312C354.629 257.34 354.354 257.354 354.134 257.354C353.446 257.381 352.731 257.45 351.988 257.56C351.273 257.67 350.516 257.835 349.718 258.055C349.388 258.165 349.03 258.124 348.645 257.931C348.26 257.739 348.026 257.354 347.944 256.776C347.944 256.556 348.026 256.377 348.191 256.239C348.356 256.102 348.549 255.978 348.769 255.868C349.127 255.703 349.553 255.565 350.048 255.455C350.544 255.318 351.039 255.222 351.534 255.166C352.057 255.111 352.552 255.098 353.02 255.125C353.487 255.125 353.873 255.166 354.175 255.249C354.615 255.387 354.959 255.593 355.207 255.868C355.482 256.143 355.592 256.473 355.537 256.858ZM354.588 270.601C354.78 271.041 354.877 271.522 354.877 272.045C354.904 272.54 354.767 272.884 354.464 273.077C354.079 273.325 353.666 273.311 353.226 273.036C352.786 272.761 352.456 272.389 352.236 271.921C351.933 271.344 351.699 270.642 351.534 269.817C351.369 268.964 351.245 268.125 351.163 267.299C351.08 266.474 351.025 265.704 350.998 264.988C350.998 264.273 350.998 263.737 350.998 263.379C351.025 262.994 351.135 262.636 351.328 262.306C351.52 261.976 351.768 261.783 352.071 261.728C352.566 261.756 352.965 261.99 353.267 262.43C353.57 262.842 353.707 263.365 353.68 263.998C353.68 264.493 353.694 265.043 353.721 265.649C353.749 266.254 353.804 266.859 353.886 267.464C353.969 268.07 354.065 268.661 354.175 269.239C354.285 269.789 354.423 270.243 354.588 270.601ZM366.109 262.306C366.33 262.609 366.536 262.994 366.728 263.461C366.949 263.902 367.114 264.356 367.224 264.823C367.389 265.566 367.568 266.378 367.76 267.258C367.98 268.111 368.187 269.005 368.379 269.941C368.599 270.876 368.792 271.825 368.957 272.788C369.15 273.751 369.315 274.673 369.452 275.553C369.617 276.764 369.521 277.919 369.163 279.02C368.833 280.148 368.269 281.152 367.471 282.032C366.673 282.913 365.683 283.614 364.5 284.137C363.317 284.66 361.983 284.948 360.497 285.003C360.167 284.976 359.823 284.811 359.465 284.508C359.108 284.233 358.929 283.944 358.929 283.642C358.901 283.339 359.039 283.091 359.341 282.899C359.672 282.734 360.002 282.624 360.332 282.569C360.91 282.514 361.501 282.39 362.106 282.197C362.739 282.032 363.331 281.785 363.881 281.454C364.431 281.124 364.926 280.725 365.367 280.258C365.834 279.79 366.192 279.24 366.44 278.607C366.632 278.112 366.728 277.506 366.728 276.791C366.728 276.048 366.673 275.319 366.563 274.604C366.481 273.889 366.357 273.214 366.192 272.582C366.054 271.921 365.931 271.426 365.821 271.096C365.628 271.289 365.38 271.495 365.078 271.715C364.803 271.935 364.486 272.142 364.129 272.334C363.771 272.527 363.372 272.678 362.932 272.788C362.519 272.898 362.093 272.939 361.652 272.912C361.185 272.884 360.745 272.719 360.332 272.417C359.947 272.114 359.603 271.729 359.3 271.261C358.998 270.766 358.75 270.202 358.557 269.569C358.392 268.936 358.31 268.276 358.31 267.588C358.365 265.938 358.777 264.479 359.548 263.214C360.346 261.921 361.611 260.917 363.344 260.201C363.482 260.174 363.661 260.146 363.881 260.119C364.129 260.091 364.376 260.091 364.624 260.119C364.871 260.119 365.105 260.146 365.325 260.201C365.573 260.256 365.779 260.339 365.944 260.449C366.247 260.669 366.398 260.985 366.398 261.398C366.398 261.811 366.302 262.113 366.109 262.306ZM360.91 267.96C360.91 268.262 360.937 268.606 360.992 268.991C361.047 269.349 361.226 269.61 361.529 269.775C361.859 269.968 362.258 269.996 362.725 269.858C363.221 269.72 363.675 269.487 364.087 269.156C364.472 268.854 364.72 268.524 364.83 268.166C364.968 267.781 364.968 267.272 364.83 266.639C364.693 266.006 364.541 265.346 364.376 264.658C364.211 263.97 364.101 263.351 364.046 262.801C363.716 262.966 363.358 263.2 362.973 263.503C362.615 263.805 362.285 264.19 361.983 264.658C361.68 265.098 361.419 265.594 361.199 266.144C361.006 266.694 360.91 267.299 360.91 267.96ZM375.224 260.077C375.307 260.49 375.389 260.958 375.472 261.481C375.582 261.976 375.692 262.498 375.802 263.049C375.912 263.571 376.008 264.108 376.091 264.658C376.173 265.208 376.242 265.731 376.297 266.226C376.627 265.511 376.985 264.754 377.37 263.957C377.755 263.159 378.168 262.43 378.608 261.769C379.076 261.082 379.557 260.518 380.053 260.077C380.575 259.637 381.139 259.417 381.745 259.417C382.653 259.417 383.409 259.747 384.014 260.408C384.647 261.068 385.17 261.893 385.583 262.884C386.023 263.847 386.367 264.865 386.614 265.938C386.862 267.01 387.068 267.96 387.233 268.785C387.398 269.528 387.068 270.078 386.243 270.436C385.858 270.628 385.569 270.656 385.376 270.518C385.184 270.381 385.074 270.243 385.046 270.106C384.909 269.775 384.73 269.198 384.51 268.372C384.317 267.547 384.083 266.708 383.808 265.855C383.56 265.002 383.272 264.259 382.941 263.626C382.611 262.994 382.24 262.705 381.827 262.76C381.332 262.787 380.892 263.159 380.507 263.874C380.176 264.452 379.833 265.098 379.475 265.814C379.145 266.502 378.815 267.217 378.484 267.96C378.154 268.675 377.824 269.404 377.494 270.147C377.191 270.862 376.903 271.522 376.627 272.128C376.435 272.32 376.187 272.458 375.885 272.54C375.609 272.595 375.321 272.568 375.018 272.458C374.743 272.375 374.523 272.238 374.358 272.045C374.193 271.853 374.11 271.66 374.11 271.467C373.862 269.322 373.601 267.368 373.326 265.607C373.078 263.847 372.748 262.045 372.335 260.201C372.143 259.568 372.102 259.073 372.212 258.716C372.349 258.33 372.762 258.179 373.45 258.262C374.413 258.427 375.004 259.032 375.224 260.077ZM418.601 257.271C415.768 257.134 413.044 257.354 410.43 257.931C407.817 258.509 405.231 259.293 402.672 260.284C402.012 260.531 401.503 260.504 401.145 260.201C400.815 259.899 400.65 259.596 400.65 259.293C400.842 258.771 401.186 258.344 401.681 258.014C407.321 255.263 412.961 254.245 418.601 254.96C418.877 255.043 419.097 255.249 419.262 255.579C419.454 255.882 419.523 256.143 419.468 256.363C419.413 256.638 419.331 256.872 419.22 257.065C419.11 257.23 418.904 257.299 418.601 257.271ZM412.741 271.674C412.741 271.976 412.631 272.252 412.411 272.499C412.219 272.719 411.971 272.857 411.668 272.912C411.118 272.994 410.76 272.898 410.595 272.623C410.43 272.348 410.334 272.031 410.307 271.674C410.279 269.748 410.238 267.836 410.183 265.938C410.155 264.012 410.073 262.086 409.935 260.16C409.935 260.05 409.921 259.926 409.894 259.789C409.866 259.623 409.866 259.472 409.894 259.335C409.921 259.17 409.976 259.032 410.059 258.922C410.169 258.812 410.334 258.729 410.554 258.674C411.187 258.564 411.641 258.674 411.916 259.004C412.191 259.307 412.329 259.61 412.329 259.912C412.549 261.893 412.686 263.86 412.741 265.814C412.796 267.767 412.796 269.72 412.741 271.674ZM431.979 263.998C430.906 264.631 429.751 265.126 428.513 265.484C427.275 265.814 425.94 265.979 424.51 265.979C424.565 266.942 424.84 267.712 425.335 268.29C425.83 268.84 426.449 269.17 427.192 269.28C427.632 269.335 428.072 269.322 428.513 269.239C428.98 269.156 429.407 269.033 429.792 268.868C430.205 268.675 430.576 268.469 430.906 268.249C431.236 268.028 431.525 267.808 431.773 267.588C432.02 267.368 432.282 267.231 432.557 267.176C432.832 267.093 433.038 267.079 433.176 267.134C433.561 267.272 433.699 267.685 433.589 268.372C433.148 269.253 432.516 270.009 431.69 270.642C430.865 271.247 429.943 271.633 428.925 271.798C428.045 271.963 427.137 271.921 426.202 271.674C425.266 271.426 424.427 270.945 423.684 270.229C423.051 269.597 422.57 268.854 422.24 268.001C421.91 267.148 421.703 266.268 421.621 265.36C421.538 264.507 421.607 263.695 421.827 262.925C422.075 262.155 422.446 261.481 422.941 260.903C423.437 260.298 424.056 259.802 424.798 259.417C425.541 259.032 426.408 258.812 427.398 258.757C428.581 258.674 429.654 258.894 430.617 259.417C431.58 259.94 432.254 260.669 432.639 261.604C432.86 262.127 432.915 262.581 432.805 262.966C432.722 263.351 432.447 263.695 431.979 263.998ZM427.233 261.192C426.958 261.247 426.656 261.343 426.325 261.481C426.023 261.618 425.734 261.797 425.459 262.017C425.211 262.21 424.977 262.443 424.757 262.719C424.565 262.966 424.455 263.255 424.427 263.585C424.895 263.585 425.404 263.544 425.954 263.461C426.532 263.379 427.082 263.283 427.605 263.173C428.155 263.035 428.65 262.884 429.09 262.719C429.558 262.554 429.943 262.375 430.246 262.182C430.026 261.659 429.613 261.343 429.008 261.233C428.43 261.095 427.839 261.082 427.233 261.192ZM446.777 258.427C446.887 259.197 446.97 260.022 447.025 260.903C447.108 261.756 447.163 262.622 447.19 263.503C447.245 264.383 447.273 265.236 447.273 266.061C447.273 266.887 447.259 267.63 447.231 268.29C448.112 268.895 448.634 269.432 448.8 269.899C448.992 270.367 449.02 270.78 448.882 271.137C448.717 271.633 448.414 271.894 447.974 271.921C447.561 271.921 447.08 271.77 446.53 271.467C446.145 271.743 445.704 272.045 445.209 272.375C444.714 272.678 444.191 272.981 443.641 273.283C443.091 273.558 442.541 273.806 441.99 274.026C441.44 274.246 440.931 274.398 440.463 274.48C439.583 274.618 438.785 274.453 438.07 273.985C437.382 273.517 436.914 272.816 436.667 271.88C436.502 271.247 436.46 270.601 436.543 269.941C436.625 269.253 436.832 268.606 437.162 268.001C437.492 267.368 437.932 266.804 438.482 266.309C439.06 265.814 439.734 265.429 440.505 265.153C440.697 265.071 440.959 265.002 441.289 264.947C441.646 264.892 442.004 264.878 442.362 264.906C442.747 264.906 443.132 264.975 443.517 265.112C443.902 265.25 444.26 265.484 444.59 265.814C444.59 265.346 444.576 264.837 444.549 264.287C444.549 263.709 444.535 263.131 444.508 262.554C444.48 261.976 444.439 261.439 444.384 260.944C444.356 260.421 444.315 259.981 444.26 259.623C444.205 259.211 444.04 258.963 443.765 258.881C443.517 258.771 443.201 258.784 442.816 258.922C442.155 259.142 441.385 259.568 440.505 260.201C439.624 260.834 438.785 261.508 437.987 262.223C437.74 262.471 437.451 262.581 437.121 262.554C436.818 262.526 436.557 262.402 436.337 262.182C436.116 261.962 435.993 261.714 435.965 261.439C435.938 261.137 436.048 260.82 436.295 260.49C436.763 259.995 437.286 259.486 437.863 258.963C438.441 258.44 439.046 257.973 439.679 257.56C440.312 257.12 440.959 256.762 441.619 256.487C442.279 256.212 442.939 256.061 443.6 256.033C444.563 256.006 445.305 256.226 445.828 256.693C446.351 257.134 446.667 257.711 446.777 258.427ZM441.99 267.299C441.633 267.382 441.247 267.561 440.835 267.836C440.45 268.083 440.092 268.4 439.762 268.785C439.459 269.143 439.225 269.555 439.06 270.023C438.923 270.463 438.923 270.903 439.06 271.344C439.115 271.509 439.225 271.633 439.39 271.715C439.583 271.798 439.789 271.811 440.009 271.756C440.67 271.619 441.413 271.357 442.238 270.972C443.091 270.56 443.765 270.119 444.26 269.652C444.26 269.487 444.177 269.28 444.012 269.033C443.847 268.758 443.655 268.496 443.435 268.249C443.215 267.973 442.967 267.74 442.692 267.547C442.444 267.354 442.21 267.272 441.99 267.299ZM453.767 260.366C453.795 260.806 453.836 261.357 453.891 262.017C453.974 262.65 454.056 263.324 454.139 264.039C454.221 264.727 454.304 265.415 454.386 266.103C454.496 266.79 454.593 267.423 454.675 268.001C454.978 267.396 455.349 266.653 455.789 265.772C456.23 264.892 456.683 264.053 457.151 263.255C457.646 262.43 458.142 261.742 458.637 261.192C459.16 260.614 459.627 260.325 460.04 260.325C460.48 260.325 460.879 260.545 461.237 260.985C461.622 261.398 461.952 261.907 462.227 262.512C462.502 263.118 462.736 263.764 462.929 264.452C463.149 265.14 463.328 265.745 463.465 266.268C463.575 265.91 463.713 265.511 463.878 265.071C464.071 264.603 464.263 264.135 464.456 263.668C464.676 263.173 464.91 262.691 465.157 262.223C465.432 261.756 465.721 261.343 466.024 260.985C466.382 260.6 466.767 260.325 467.179 260.16C467.592 259.967 467.895 259.871 468.087 259.871C468.335 259.871 468.624 259.954 468.954 260.119C469.312 260.256 469.669 260.449 470.027 260.696C470.385 260.944 470.715 261.247 471.017 261.604C471.347 261.934 471.609 262.278 471.801 262.636C472.187 263.379 472.489 264.19 472.709 265.071C472.957 265.951 473.136 266.79 473.246 267.588C473.356 268.386 473.425 269.101 473.452 269.734C473.507 270.339 473.548 270.766 473.576 271.014C473.576 271.371 473.535 271.646 473.452 271.839C473.37 272.004 473.218 272.142 472.998 272.252C472.696 272.389 472.434 272.444 472.214 272.417C471.994 272.362 471.815 272.265 471.678 272.128C471.54 271.99 471.43 271.839 471.347 271.674C471.265 271.481 471.21 271.316 471.182 271.179C471.1 270.546 471.004 269.899 470.894 269.239C470.811 268.579 470.715 267.946 470.605 267.341C470.495 266.708 470.357 266.13 470.192 265.607C470.054 265.057 469.903 264.576 469.738 264.163C469.683 264.053 469.587 263.915 469.449 263.75C469.339 263.558 469.202 263.379 469.036 263.214C468.899 263.049 468.761 262.911 468.624 262.801C468.486 262.691 468.39 262.622 468.335 262.595C468.06 262.595 467.771 262.856 467.468 263.379C467.166 263.874 466.877 264.479 466.602 265.195C466.327 265.91 466.065 266.667 465.818 267.464C465.597 268.235 465.432 268.895 465.322 269.445C465.322 270.161 465.185 270.697 464.91 271.055C464.635 271.385 464.346 271.55 464.043 271.55C463.74 271.55 463.41 271.44 463.053 271.22C462.722 270.972 462.502 270.697 462.392 270.394C462.227 269.954 462.048 269.459 461.856 268.909C461.663 268.359 461.457 267.795 461.237 267.217C461.044 266.639 460.838 266.075 460.618 265.525C460.425 264.975 460.233 264.479 460.04 264.039C459.655 264.562 459.27 265.14 458.884 265.772C458.527 266.405 458.169 267.052 457.811 267.712C457.481 268.372 457.151 269.033 456.821 269.693C456.518 270.326 456.23 270.89 455.954 271.385C455.762 271.688 455.555 271.963 455.335 272.21C455.115 272.43 454.854 272.54 454.551 272.54C454.331 272.54 454.097 272.444 453.85 272.252C453.602 272.031 453.368 271.77 453.148 271.467C452.928 271.165 452.722 270.821 452.529 270.436C452.364 270.051 452.24 269.665 452.158 269.28C451.938 268.097 451.745 266.804 451.58 265.401C451.442 263.97 451.305 262.581 451.167 261.233C451.14 260.765 451.195 260.339 451.332 259.954C451.497 259.541 451.8 259.266 452.24 259.128C452.708 259.046 453.066 259.114 453.313 259.335C453.561 259.555 453.712 259.899 453.767 260.366Z" fill="#350079"/>
<path d="M303.629 32.304C303.547 31.286 303.478 30.1305 303.423 28.8374C303.395 27.5444 303.381 26.2238 303.381 24.8757C303.381 23.5001 303.381 22.152 303.381 20.8314C303.409 19.5108 303.45 18.314 303.505 17.241C303.505 16.9659 303.629 16.7596 303.877 16.622C304.152 16.4569 304.372 16.3882 304.537 16.4157C305.032 16.4707 305.362 16.6495 305.527 16.9522C305.72 17.2273 305.844 17.6262 305.899 18.1489C305.871 19.0293 305.844 19.9097 305.816 20.7901C305.816 21.6705 305.83 22.5509 305.858 23.4313C307.096 23.2112 308.127 22.7572 308.953 22.0694C309.806 21.3816 310.411 20.5975 310.768 19.7171C310.906 19.387 311.002 18.9881 311.057 18.5204C311.14 18.0527 311.154 17.5849 311.099 17.1172C311.044 16.622 310.906 16.1681 310.686 15.7554C310.493 15.3152 310.191 14.9713 309.778 14.7237C309.173 14.366 308.512 14.1734 307.797 14.1459C307.082 14.1184 306.339 14.2285 305.569 14.4761C304.826 14.6962 304.083 15.0538 303.34 15.549C302.625 16.0443 301.951 16.6358 301.318 17.3236C301.401 17.7363 301.346 18.1077 301.153 18.4378C300.96 18.7405 300.685 18.9606 300.328 19.0981C300.108 19.1531 299.846 19.0431 299.544 18.768C299.241 18.4653 299.09 18.1627 299.09 17.8601C299.09 16.7596 299.392 15.8104 299.997 15.0126C300.63 14.1872 301.414 13.4994 302.35 12.9491C303.285 12.3989 304.289 11.9862 305.362 11.7111C306.435 11.436 307.426 11.2984 308.334 11.2984C309.682 11.2984 310.81 11.6973 311.718 12.4952C312.626 13.2655 313.245 14.2422 313.575 15.4252C314.152 17.4887 314.001 19.3457 313.121 20.9965C312.268 22.6472 310.865 24.0778 308.911 25.2884C310.342 26.1688 311.676 27.0079 312.914 27.8057C314.18 28.6036 315.446 29.4702 316.711 30.4056C316.876 30.5707 317.055 30.8183 317.248 31.1485C317.468 31.4511 317.44 31.9188 317.165 32.5516C317 32.9368 316.711 33.1569 316.298 33.2119C315.913 33.2394 315.528 33.1156 315.143 32.8405C314.538 32.3452 313.85 31.8363 313.08 31.3135C312.337 30.7633 311.553 30.2268 310.727 29.7041C309.902 29.1538 309.076 28.6311 308.251 28.1359C307.426 27.6131 306.642 27.1317 305.899 26.6915C305.926 27.792 305.94 28.8925 305.94 29.9929C305.968 31.0659 306.009 32.1251 306.064 33.1706C306.064 33.5558 305.954 33.8309 305.734 33.996C305.514 34.1335 305.239 34.2023 304.908 34.2023C304.743 34.1748 304.592 34.0923 304.454 33.9547C304.317 33.7896 304.179 33.6108 304.042 33.4182C303.932 33.1981 303.835 32.9918 303.753 32.7992C303.67 32.5791 303.629 32.414 303.629 32.304ZM329.225 23.2662C328.152 23.899 326.997 24.3942 325.759 24.7519C324.521 25.082 323.186 25.2471 321.756 25.2471C321.811 26.21 322.086 26.9804 322.581 27.5581C323.076 28.1084 323.695 28.4385 324.438 28.5486C324.878 28.6036 325.319 28.5898 325.759 28.5073C326.227 28.4248 326.653 28.3009 327.038 28.1359C327.451 27.9433 327.822 27.7369 328.152 27.5169C328.483 27.2968 328.771 27.0767 329.019 26.8566C329.267 26.6365 329.528 26.4989 329.803 26.4439C330.078 26.3613 330.285 26.3476 330.422 26.4026C330.807 26.5402 330.945 26.9529 330.835 27.6407C330.395 28.521 329.762 29.2776 328.937 29.9104C328.111 30.5157 327.19 30.9009 326.172 31.0659C325.291 31.231 324.383 31.1897 323.448 30.9421C322.512 30.6945 321.673 30.213 320.93 29.4977C320.298 28.8649 319.816 28.1221 319.486 27.2692C319.156 26.4164 318.95 25.536 318.867 24.6281C318.785 23.7752 318.853 22.9636 319.073 22.1932C319.321 21.4229 319.692 20.7488 320.188 20.1711C320.683 19.5658 321.302 19.0706 322.045 18.6854C322.788 18.3003 323.654 18.0802 324.645 18.0251C325.828 17.9426 326.901 18.1627 327.864 18.6854C328.826 19.2082 329.501 19.9372 329.886 20.8727C330.106 21.3954 330.161 21.8493 330.051 22.2345C329.968 22.6197 329.693 22.9636 329.225 23.2662ZM324.48 20.46C324.204 20.515 323.902 20.6113 323.572 20.7488C323.269 20.8864 322.98 21.0652 322.705 21.2853C322.457 21.4779 322.224 21.7118 322.003 21.9869C321.811 22.2345 321.701 22.5234 321.673 22.8535C322.141 22.8535 322.65 22.8123 323.2 22.7297C323.778 22.6472 324.328 22.5509 324.851 22.4408C325.401 22.3033 325.896 22.152 326.337 21.9869C326.804 21.8218 327.19 21.643 327.492 21.4504C327.272 20.9277 326.859 20.6113 326.254 20.5012C325.676 20.3637 325.085 20.3499 324.48 20.46ZM341.424 20.625C341.369 20.3224 341.314 20.0335 341.259 19.7584C341.204 19.4833 341.066 19.3045 340.846 19.2219C340.378 19.0844 339.883 19.0706 339.36 19.1807C338.838 19.2907 338.356 19.4695 337.916 19.7171C337.476 19.9372 337.104 20.1986 336.802 20.5012C336.499 20.7764 336.334 21.024 336.306 21.2441C336.224 21.6568 336.334 22.0557 336.637 22.4408C336.939 22.826 337.379 23.2112 337.957 23.5964C338.92 24.1741 339.924 24.7656 340.97 25.3709C342.015 25.9762 342.896 26.5952 343.611 27.228C344.326 27.8608 344.808 28.5623 345.055 29.3327C345.33 30.0755 345.275 30.9284 344.89 31.8913C344.588 32.6341 344.024 33.2394 343.198 33.7071C342.373 34.1748 341.465 34.5462 340.475 34.8213C339.484 35.0689 338.494 35.2478 337.503 35.3578C336.513 35.4404 335.674 35.4816 334.986 35.4816C334.821 35.4816 334.614 35.4266 334.367 35.3166C334.147 35.179 333.927 35.0277 333.707 34.8626C333.514 34.6975 333.335 34.5325 333.17 34.3674C333.033 34.1748 332.964 34.0097 332.964 33.8722C332.964 33.3769 333.184 33.033 333.624 32.8405C334.064 32.6479 334.518 32.5516 334.986 32.5516C335.646 32.5516 336.348 32.5241 337.091 32.469C337.861 32.3865 338.59 32.2765 339.278 32.1389C339.966 31.9738 340.585 31.7675 341.135 31.5199C341.685 31.2723 342.07 30.9559 342.29 30.5707C342.483 30.2406 342.359 29.8554 341.919 29.4152C341.506 28.9475 340.942 28.466 340.227 27.9708C339.539 27.4756 338.783 26.9941 337.957 26.5264C337.159 26.0587 336.472 25.6323 335.894 25.2471C335.316 24.8619 334.821 24.408 334.408 23.8852C333.995 23.335 333.734 22.6609 333.624 21.8631C333.597 21.1478 333.748 20.46 334.078 19.7997C334.408 19.1394 334.835 18.5616 335.357 18.0664C335.908 17.5437 336.527 17.131 337.214 16.8284C337.902 16.5257 338.59 16.3744 339.278 16.3744C340.461 16.4294 341.438 16.7596 342.208 17.3648C342.978 17.9426 343.432 18.8092 343.57 19.9648C343.57 20.3499 343.501 20.6663 343.363 20.9139C343.253 21.1615 343.047 21.3128 342.744 21.3679C342.359 21.4229 342.043 21.3816 341.795 21.2441C341.575 21.079 341.451 20.8727 341.424 20.625ZM357.678 23.2662C356.605 23.899 355.449 24.3942 354.211 24.7519C352.973 25.082 351.639 25.2471 350.208 25.2471C350.263 26.21 350.539 26.9804 351.034 27.5581C351.529 28.1084 352.148 28.4385 352.891 28.5486C353.331 28.6036 353.771 28.5898 354.211 28.5073C354.679 28.4248 355.106 28.3009 355.491 28.1359C355.903 27.9433 356.275 27.7369 356.605 27.5169C356.935 27.2968 357.224 27.0767 357.472 26.8566C357.719 26.6365 357.981 26.4989 358.256 26.4439C358.531 26.3613 358.737 26.3476 358.875 26.4026C359.26 26.5402 359.397 26.9529 359.287 27.6407C358.847 28.521 358.214 29.2776 357.389 29.9104C356.564 30.5157 355.642 30.9009 354.624 31.0659C353.744 31.231 352.836 31.1897 351.9 30.9421C350.965 30.6945 350.126 30.213 349.383 29.4977C348.75 28.8649 348.269 28.1221 347.939 27.2692C347.609 26.4164 347.402 25.536 347.32 24.6281C347.237 23.7752 347.306 22.9636 347.526 22.1932C347.774 21.4229 348.145 20.7488 348.64 20.1711C349.135 19.5658 349.754 19.0706 350.497 18.6854C351.24 18.3003 352.107 18.0802 353.097 18.0251C354.28 17.9426 355.353 18.1627 356.316 18.6854C357.279 19.2082 357.953 19.9372 358.338 20.8727C358.558 21.3954 358.613 21.8493 358.503 22.2345C358.421 22.6197 358.146 22.9636 357.678 23.2662ZM352.932 20.46C352.657 20.515 352.354 20.6113 352.024 20.7488C351.722 20.8864 351.433 21.0652 351.158 21.2853C350.91 21.4779 350.676 21.7118 350.456 21.9869C350.263 22.2345 350.153 22.5234 350.126 22.8535C350.594 22.8535 351.103 22.8123 351.653 22.7297C352.231 22.6472 352.781 22.5509 353.304 22.4408C353.854 22.3033 354.349 22.152 354.789 21.9869C355.257 21.8218 355.642 21.643 355.945 21.4504C355.725 20.9277 355.312 20.6113 354.707 20.5012C354.129 20.3637 353.537 20.3499 352.932 20.46ZM372.476 17.695C372.586 18.4653 372.669 19.2907 372.724 20.1711C372.806 21.024 372.861 21.8906 372.889 22.771C372.944 23.6514 372.971 24.5043 372.971 25.3296C372.971 26.155 372.958 26.8978 372.93 27.5581C373.811 28.1634 374.333 28.6999 374.498 29.1676C374.691 29.6353 374.718 30.048 374.581 30.4056C374.416 30.9009 374.113 31.1622 373.673 31.1897C373.26 31.1897 372.779 31.0384 372.229 30.7358C371.843 31.0109 371.403 31.3135 370.908 31.6437C370.413 31.9463 369.89 32.2489 369.34 32.5516C368.79 32.8267 368.239 33.0743 367.689 33.2944C367.139 33.5145 366.63 33.6658 366.162 33.7484C365.282 33.8859 364.484 33.7209 363.769 33.2531C363.081 32.7854 362.613 32.0839 362.365 31.1485C362.2 30.5157 362.159 29.8691 362.242 29.2089C362.324 28.521 362.531 27.8745 362.861 27.2692C363.191 26.6365 363.631 26.0725 364.181 25.5772C364.759 25.082 365.433 24.6968 366.203 24.4217C366.396 24.3392 366.657 24.2704 366.988 24.2154C367.345 24.1604 367.703 24.1466 368.06 24.1741C368.446 24.1741 368.831 24.2429 369.216 24.3805C369.601 24.518 369.959 24.7519 370.289 25.082C370.289 24.6143 370.275 24.1053 370.248 23.5551C370.248 22.9773 370.234 22.3996 370.206 21.8218C370.179 21.2441 370.138 20.7076 370.083 20.2124C370.055 19.6896 370.014 19.2494 369.959 18.8918C369.904 18.4791 369.739 18.2315 369.464 18.1489C369.216 18.0389 368.9 18.0527 368.514 18.1902C367.854 18.4103 367.084 18.8368 366.203 19.4695C365.323 20.1023 364.484 20.7764 363.686 21.4917C363.438 21.7393 363.15 21.8493 362.819 21.8218C362.517 21.7943 362.255 21.6705 362.035 21.4504C361.815 21.2303 361.691 20.9827 361.664 20.7076C361.636 20.4049 361.746 20.0886 361.994 19.7584C362.462 19.2632 362.984 18.7542 363.562 18.2315C364.14 17.7088 364.745 17.241 365.378 16.8284C366.011 16.3882 366.657 16.0305 367.318 15.7554C367.978 15.4803 368.638 15.3289 369.299 15.3014C370.261 15.2739 371.004 15.494 371.527 15.9617C372.05 16.4019 372.366 16.9797 372.476 17.695ZM367.689 26.5677C367.331 26.6502 366.946 26.829 366.534 27.1042C366.148 27.3518 365.791 27.6682 365.461 28.0533C365.158 28.411 364.924 28.8237 364.759 29.2914C364.621 29.7316 364.621 30.1718 364.759 30.612C364.814 30.777 364.924 30.9009 365.089 30.9834C365.282 31.0659 365.488 31.0797 365.708 31.0247C366.368 30.8871 367.111 30.6257 367.937 30.2406C368.79 29.8279 369.464 29.3877 369.959 28.92C369.959 28.7549 369.876 28.5486 369.711 28.3009C369.546 28.0258 369.354 27.7645 369.133 27.5169C368.913 27.2417 368.666 27.0079 368.391 26.8153C368.143 26.6227 367.909 26.5402 367.689 26.5677ZM389.329 18.7267C388.834 19.0018 388.311 19.2907 387.761 19.5933C387.238 19.896 386.702 20.2536 386.151 20.6663C385.629 21.0515 385.12 21.5192 384.625 22.0694C384.157 22.5922 383.73 23.2249 383.345 23.9678C382.795 25.0132 382.424 26.0862 382.231 27.1867C382.038 28.2597 381.915 29.3189 381.86 30.3644C381.86 30.8596 381.736 31.3686 381.488 31.8913C381.268 32.3865 380.952 32.6341 380.539 32.6341C380.016 32.6341 379.59 32.3728 379.26 31.85C378.957 31.2998 378.751 30.777 378.641 30.2818C378.173 28.3285 377.788 26.4026 377.485 24.5043C377.183 22.5784 376.921 20.6663 376.701 18.768C376.701 18.3828 376.811 18.1352 377.031 18.0251C377.279 17.9151 377.554 17.8738 377.857 17.9013C378.187 17.9288 378.503 18.0114 378.806 18.1489C379.108 18.2865 379.287 18.5066 379.342 18.8092C379.452 19.8272 379.59 20.9002 379.755 22.0282C379.92 23.1287 380.085 24.0778 380.25 24.8757C380.36 23.9403 380.663 23.0324 381.158 22.152C381.653 21.2716 382.259 20.4737 382.974 19.7584C383.717 19.0431 384.542 18.4378 385.45 17.9426C386.385 17.4474 387.335 17.1172 388.297 16.9522C388.71 16.8971 389.054 16.8971 389.329 16.9522C389.604 17.0072 389.797 17.1035 389.907 17.241C390.017 17.3786 390.031 17.5987 389.948 17.9013C389.893 18.204 389.687 18.4791 389.329 18.7267ZM401.312 22.3583C401.12 22.4684 400.886 22.5096 400.611 22.4821C400.336 22.4271 400.102 22.2483 399.909 21.9456C399.469 21.3679 398.933 21.079 398.3 21.079C397.722 21.079 397.199 21.2166 396.732 21.4917C396.291 21.7393 395.893 22.0832 395.535 22.5234C395.205 22.9361 394.93 23.4038 394.71 23.9265C394.489 24.4492 394.338 24.972 394.256 25.4947C394.118 26.4576 394.283 27.2692 394.751 27.9295C395.218 28.5898 395.948 28.92 396.938 28.92C397.736 28.9475 398.63 28.7962 399.62 28.466C400.638 28.1084 401.588 27.6544 402.468 27.1042C402.853 26.9391 403.211 26.8428 403.541 26.8153C403.871 26.7878 404.146 26.9529 404.366 27.3105C404.641 27.7507 404.573 28.2047 404.16 28.6724C403.747 29.1126 403.197 29.5115 402.509 29.8691C401.821 30.2543 401.092 30.5982 400.322 30.9009C399.579 31.176 398.823 31.3823 398.052 31.5199C397.282 31.6299 396.512 31.6299 395.741 31.5199C394.998 31.4098 394.297 31.1485 393.637 30.7358C392.591 30.0205 391.958 29.0025 391.738 27.6819C391.518 26.3613 391.614 24.9995 392.027 23.5964C392.192 23.0736 392.426 22.5509 392.729 22.0282C393.031 21.4779 393.389 20.9827 393.802 20.5425C394.242 20.1023 394.723 19.7309 395.246 19.4283C395.769 19.0981 396.346 18.878 396.979 18.768C397.997 18.6029 398.974 18.7129 399.909 19.0981C400.845 19.4558 401.464 20.1298 401.766 21.1203C401.821 21.3404 401.821 21.5742 401.766 21.8218C401.711 22.0419 401.56 22.2208 401.312 22.3583ZM409.661 14.6824C409.661 15.3427 409.647 16.0855 409.62 16.9109C409.62 17.7363 409.62 18.5891 409.62 19.4695C409.647 20.3499 409.661 21.2578 409.661 22.1932C409.689 23.1287 409.716 24.0228 409.744 24.8757C410.019 24.3254 410.349 23.7889 410.734 23.2662C411.119 22.716 411.546 22.2345 412.013 21.8218C412.509 21.4091 413.018 21.079 413.54 20.8314C414.091 20.5838 414.682 20.46 415.315 20.46C416.003 20.46 416.608 20.6801 417.131 21.1203C417.681 21.5605 418.149 22.152 418.534 22.8948C418.947 23.6101 419.29 24.4217 419.566 25.3296C419.841 26.21 420.061 27.1179 420.226 28.0533C420.418 28.9612 420.556 29.8416 420.639 30.6945C420.721 31.5199 420.79 32.2352 420.845 32.8405C420.845 33.2807 420.735 33.6383 420.515 33.9134C420.295 34.1886 420.033 34.3261 419.731 34.3261C419.511 34.3261 419.235 34.1886 418.905 33.9134C418.603 33.6108 418.383 33.2531 418.245 32.8405C418.162 32.5103 418.08 32.0289 417.997 31.3961C417.915 30.7633 417.819 30.0892 417.709 29.3739C417.598 28.6311 417.461 27.8883 417.296 27.1454C417.131 26.4026 416.924 25.7423 416.677 25.1646C416.457 24.5593 416.182 24.0916 415.851 23.7614C415.521 23.4313 415.136 23.3075 414.696 23.39C414.008 23.5276 413.403 24.009 412.88 24.8344C412.385 25.6598 411.945 26.5952 411.56 27.6407C411.202 28.6861 410.899 29.7453 410.652 30.8183C410.432 31.8913 410.266 32.7579 410.156 33.4182C410.046 33.9134 409.895 34.2573 409.702 34.4499C409.537 34.615 409.345 34.6975 409.125 34.6975C408.905 34.6975 408.698 34.5875 408.506 34.3674C408.341 34.1473 408.176 33.8859 408.01 33.5833C407.873 33.2531 407.749 32.923 407.639 32.5929C407.529 32.2352 407.46 31.9326 407.433 31.6849C407.295 30.1993 407.185 28.7824 407.103 27.4343C407.02 26.0587 406.951 24.6831 406.896 23.3075C406.869 21.9319 406.855 20.5288 406.855 19.0981C406.855 17.64 406.882 16.0855 406.937 14.4348C406.937 13.0592 407.433 12.4402 408.423 12.5777C408.753 12.6328 409.042 12.8804 409.29 13.3206C409.537 13.7332 409.661 14.1872 409.661 14.6824ZM452.347 16.5395C449.514 16.4019 446.79 16.622 444.176 17.1998C441.563 17.7775 438.977 18.5616 436.418 19.5521C435.758 19.7997 435.249 19.7722 434.891 19.4695C434.561 19.1669 434.396 18.8643 434.396 18.5616C434.588 18.0389 434.932 17.6125 435.427 17.2823C441.067 14.5311 446.707 13.5131 452.347 14.2285C452.623 14.311 452.843 14.5173 453.008 14.8475C453.2 15.1501 453.269 15.4115 453.214 15.6316C453.159 15.9067 453.077 16.1406 452.966 16.3331C452.856 16.4982 452.65 16.567 452.347 16.5395ZM446.487 30.9421C446.487 31.2448 446.377 31.5199 446.157 31.7675C445.965 31.9876 445.717 32.1251 445.414 32.1802C444.864 32.2627 444.506 32.1664 444.341 31.8913C444.176 31.6162 444.08 31.2998 444.053 30.9421C444.025 29.0163 443.984 27.1042 443.929 25.2058C443.901 23.28 443.819 21.3541 443.681 19.4283C443.681 19.3182 443.667 19.1944 443.64 19.0568C443.612 18.8918 443.612 18.7405 443.64 18.6029C443.667 18.4378 443.722 18.3003 443.805 18.1902C443.915 18.0802 444.08 17.9976 444.3 17.9426C444.933 17.8326 445.387 17.9426 445.662 18.2728C445.937 18.5754 446.075 18.878 446.075 19.1807C446.295 21.1615 446.432 23.1287 446.487 25.082C446.542 27.0354 446.542 28.9888 446.487 30.9421ZM465.725 23.2662C464.652 23.899 463.497 24.3942 462.259 24.7519C461.021 25.082 459.686 25.2471 458.256 25.2471C458.311 26.21 458.586 26.9804 459.081 27.5581C459.576 28.1084 460.195 28.4385 460.938 28.5486C461.378 28.6036 461.818 28.5898 462.259 28.5073C462.726 28.4248 463.153 28.3009 463.538 28.1359C463.951 27.9433 464.322 27.7369 464.652 27.5169C464.982 27.2968 465.271 27.0767 465.519 26.8566C465.766 26.6365 466.028 26.4989 466.303 26.4439C466.578 26.3613 466.784 26.3476 466.922 26.4026C467.307 26.5402 467.445 26.9529 467.335 27.6407C466.894 28.521 466.262 29.2776 465.436 29.9104C464.611 30.5157 463.689 30.9009 462.671 31.0659C461.791 31.231 460.883 31.1897 459.948 30.9421C459.012 30.6945 458.173 30.213 457.43 29.4977C456.797 28.8649 456.316 28.1221 455.986 27.2692C455.656 26.4164 455.449 25.536 455.367 24.6281C455.284 23.7752 455.353 22.9636 455.573 22.1932C455.821 21.4229 456.192 20.7488 456.687 20.1711C457.183 19.5658 457.802 19.0706 458.544 18.6854C459.287 18.3003 460.154 18.0802 461.144 18.0251C462.327 17.9426 463.4 18.1627 464.363 18.6854C465.326 19.2082 466 19.9372 466.385 20.8727C466.606 21.3954 466.661 21.8493 466.55 22.2345C466.468 22.6197 466.193 22.9636 465.725 23.2662ZM460.979 20.46C460.704 20.515 460.402 20.6113 460.071 20.7488C459.769 20.8864 459.48 21.0652 459.205 21.2853C458.957 21.4779 458.723 21.7118 458.503 21.9869C458.311 22.2345 458.201 22.5234 458.173 22.8535C458.641 22.8535 459.15 22.8123 459.7 22.7297C460.278 22.6472 460.828 22.5509 461.351 22.4408C461.901 22.3033 462.396 22.152 462.836 21.9869C463.304 21.8218 463.689 21.643 463.992 21.4504C463.772 20.9277 463.359 20.6113 462.754 20.5012C462.176 20.3637 461.585 20.3499 460.979 20.46ZM480.523 17.695C480.633 18.4653 480.716 19.2907 480.771 20.1711C480.854 21.024 480.909 21.8906 480.936 22.771C480.991 23.6514 481.019 24.5043 481.019 25.3296C481.019 26.155 481.005 26.8978 480.977 27.5581C481.858 28.1634 482.38 28.6999 482.546 29.1676C482.738 29.6353 482.766 30.048 482.628 30.4056C482.463 30.9009 482.16 31.1622 481.72 31.1897C481.307 31.1897 480.826 31.0384 480.276 30.7358C479.891 31.0109 479.45 31.3135 478.955 31.6437C478.46 31.9463 477.937 32.2489 477.387 32.5516C476.837 32.8267 476.287 33.0743 475.736 33.2944C475.186 33.5145 474.677 33.6658 474.209 33.7484C473.329 33.8859 472.531 33.7209 471.816 33.2531C471.128 32.7854 470.66 32.0839 470.413 31.1485C470.248 30.5157 470.206 29.8691 470.289 29.2089C470.371 28.521 470.578 27.8745 470.908 27.2692C471.238 26.6365 471.678 26.0725 472.228 25.5772C472.806 25.082 473.48 24.6968 474.251 24.4217C474.443 24.3392 474.705 24.2704 475.035 24.2154C475.392 24.1604 475.75 24.1466 476.108 24.1741C476.493 24.1741 476.878 24.2429 477.263 24.3805C477.648 24.518 478.006 24.7519 478.336 25.082C478.336 24.6143 478.322 24.1053 478.295 23.5551C478.295 22.9773 478.281 22.3996 478.254 21.8218C478.226 21.2441 478.185 20.7076 478.13 20.2124C478.102 19.6896 478.061 19.2494 478.006 18.8918C477.951 18.4791 477.786 18.2315 477.511 18.1489C477.263 18.0389 476.947 18.0527 476.562 18.1902C475.901 18.4103 475.131 18.8368 474.251 19.4695C473.37 20.1023 472.531 20.7764 471.733 21.4917C471.486 21.7393 471.197 21.8493 470.867 21.8218C470.564 21.7943 470.303 21.6705 470.083 21.4504C469.862 21.2303 469.739 20.9827 469.711 20.7076C469.684 20.4049 469.794 20.0886 470.041 19.7584C470.509 19.2632 471.032 18.7542 471.609 18.2315C472.187 17.7088 472.792 17.241 473.425 16.8284C474.058 16.3882 474.705 16.0305 475.365 15.7554C476.025 15.4803 476.685 15.3289 477.346 15.3014C478.309 15.2739 479.051 15.494 479.574 15.9617C480.097 16.4019 480.413 16.9797 480.523 17.695ZM475.736 26.5677C475.379 26.6502 474.993 26.829 474.581 27.1042C474.196 27.3518 473.838 27.6682 473.508 28.0533C473.205 28.411 472.971 28.8237 472.806 29.2914C472.669 29.7316 472.669 30.1718 472.806 30.612C472.861 30.777 472.971 30.9009 473.136 30.9834C473.329 31.0659 473.535 31.0797 473.755 31.0247C474.416 30.8871 475.159 30.6257 475.984 30.2406C476.837 29.8279 477.511 29.3877 478.006 28.92C478.006 28.7549 477.923 28.5486 477.758 28.3009C477.593 28.0258 477.401 27.7645 477.181 27.5169C476.961 27.2417 476.713 27.0079 476.438 26.8153C476.19 26.6227 475.956 26.5402 475.736 26.5677ZM487.513 19.6346C487.541 20.0748 487.582 20.625 487.637 21.2853C487.72 21.9181 487.802 22.5922 487.885 23.3075C487.967 23.9953 488.05 24.6831 488.132 25.3709C488.242 26.0587 488.339 26.6915 488.421 27.2692C488.724 26.664 489.095 25.9211 489.535 25.0408C489.976 24.1604 490.429 23.3212 490.897 22.5234C491.392 21.698 491.888 21.0102 492.383 20.46C492.906 19.8822 493.373 19.5933 493.786 19.5933C494.226 19.5933 494.625 19.8134 494.983 20.2536C495.368 20.6663 495.698 21.1753 495.973 21.7806C496.248 22.3858 496.482 23.0324 496.675 23.7202C496.895 24.408 497.074 25.0132 497.211 25.536C497.321 25.1783 497.459 24.7794 497.624 24.3392C497.817 23.8715 498.009 23.4038 498.202 22.9361C498.422 22.4408 498.656 21.9594 498.903 21.4917C499.178 21.024 499.467 20.6113 499.77 20.2536C500.128 19.8685 500.513 19.5933 500.925 19.4283C501.338 19.2357 501.641 19.1394 501.833 19.1394C502.081 19.1394 502.37 19.2219 502.7 19.387C503.058 19.5246 503.415 19.7171 503.773 19.9648C504.131 20.2124 504.461 20.515 504.763 20.8727C505.093 21.2028 505.355 21.5467 505.547 21.9044C505.933 22.6472 506.235 23.4588 506.455 24.3392C506.703 25.2196 506.882 26.0587 506.992 26.8566C507.102 27.6544 507.171 28.3697 507.198 29.0025C507.253 29.6078 507.294 30.0342 507.322 30.2818C507.322 30.6395 507.281 30.9146 507.198 31.1072C507.116 31.2723 506.964 31.4098 506.744 31.5199C506.442 31.6574 506.18 31.7125 505.96 31.6849C505.74 31.6299 505.561 31.5336 505.424 31.3961C505.286 31.2585 505.176 31.1072 505.093 30.9421C505.011 30.7495 504.956 30.5845 504.928 30.4469C504.846 29.8141 504.75 29.1676 504.64 28.5073C504.557 27.847 504.461 27.2142 504.351 26.6089C504.241 25.9762 504.103 25.3984 503.938 24.8757C503.8 24.3254 503.649 23.844 503.484 23.4313C503.429 23.3212 503.333 23.1837 503.195 23.0186C503.085 22.826 502.948 22.6472 502.782 22.4821C502.645 22.317 502.507 22.1795 502.37 22.0694C502.232 21.9594 502.136 21.8906 502.081 21.8631C501.806 21.8631 501.517 22.1245 501.214 22.6472C500.912 23.1424 500.623 23.7477 500.348 24.463C500.073 25.1783 499.811 25.9349 499.564 26.7328C499.343 27.5031 499.178 28.1634 499.068 28.7136C499.068 29.4289 498.931 29.9654 498.656 30.3231C498.381 30.6532 498.092 30.8183 497.789 30.8183C497.486 30.8183 497.156 30.7083 496.799 30.4882C496.468 30.2406 496.248 29.9654 496.138 29.6628C495.973 29.2226 495.794 28.7274 495.602 28.1771C495.409 27.6269 495.203 27.0629 494.983 26.4851C494.79 25.9074 494.584 25.3434 494.364 24.7931C494.171 24.2429 493.979 23.7477 493.786 23.3075C493.401 23.8302 493.016 24.408 492.63 25.0408C492.273 25.6735 491.915 26.3201 491.557 26.9804C491.227 27.6407 490.897 28.3009 490.567 28.9612C490.264 29.594 489.976 30.158 489.7 30.6532C489.508 30.9559 489.301 31.231 489.081 31.4786C488.861 31.6987 488.6 31.8088 488.297 31.8088C488.077 31.8088 487.843 31.7125 487.596 31.5199C487.348 31.2998 487.114 31.0384 486.894 30.7358C486.674 30.4331 486.468 30.0892 486.275 29.7041C486.11 29.3189 485.986 28.9337 485.904 28.5486C485.684 27.3655 485.491 26.0725 485.326 24.6693C485.188 23.2387 485.051 21.8493 484.913 20.5012C484.886 20.0335 484.941 19.6071 485.078 19.2219C485.243 18.8092 485.546 18.5341 485.986 18.3966C486.454 18.314 486.812 18.3828 487.059 18.6029C487.307 18.823 487.458 19.1669 487.513 19.6346Z" fill="#350079"/>
<path d="M317.412 504.193C317.522 504.468 317.412 504.743 317.082 505.018C316.752 505.266 316.229 505.431 315.513 505.514C314.275 505.679 313.01 505.858 311.717 506.05C310.424 506.215 309.103 506.394 307.755 506.587C307.7 507.99 307.7 509.393 307.755 510.796C308.388 510.796 309.144 510.741 310.025 510.631C310.933 510.493 311.854 510.328 312.79 510.136C313.725 509.943 314.619 509.751 315.472 509.558C316.353 509.338 317.095 509.159 317.701 509.021C318.003 508.939 318.32 508.884 318.65 508.856C318.98 508.801 319.269 508.801 319.517 508.856C319.792 508.884 320.012 508.98 320.177 509.145C320.342 509.31 320.424 509.544 320.424 509.847C320.424 509.929 320.328 510.053 320.136 510.218C319.943 510.383 319.695 510.562 319.393 510.755C319.118 510.92 318.815 511.085 318.485 511.25C318.182 511.388 317.907 511.498 317.659 511.58C315.954 512.13 314.275 512.612 312.625 513.025C310.974 513.41 309.365 513.616 307.796 513.644C306.888 513.671 306.201 513.437 305.733 512.942C305.265 512.419 305.018 511.676 304.99 510.713C304.935 509.365 304.935 508.004 304.99 506.628C304.522 506.353 304.289 505.968 304.289 505.472C304.344 504.95 304.591 504.592 305.031 504.399C305.086 503.602 305.128 502.804 305.155 502.006C305.183 501.181 305.224 500.369 305.279 499.571C304.976 499.516 304.701 499.365 304.454 499.117C304.233 498.869 304.123 498.594 304.123 498.292C304.123 498.044 304.178 497.824 304.289 497.631C304.399 497.411 304.605 497.246 304.908 497.136C305.403 497.026 306.008 496.902 306.723 496.765C307.439 496.627 308.168 496.503 308.911 496.393C309.681 496.283 310.41 496.187 311.098 496.105C311.813 496.022 312.418 495.967 312.914 495.939C313.491 495.884 314.042 495.939 314.564 496.105C315.115 496.27 315.624 496.586 316.091 497.054C316.201 497.439 316.119 497.728 315.844 497.92C315.596 498.113 315.266 498.237 314.853 498.292C314.441 498.347 313.945 498.416 313.368 498.498C312.79 498.553 312.185 498.622 311.552 498.704C310.946 498.787 310.327 498.869 309.695 498.952C309.089 499.007 308.512 499.076 307.961 499.158C307.961 499.213 307.961 499.282 307.961 499.365C307.989 499.42 308.003 499.475 308.003 499.53C307.948 500.245 307.906 500.96 307.879 501.676C307.851 502.391 307.824 503.106 307.796 503.822C308.952 503.629 310.135 503.464 311.345 503.326C312.556 503.161 313.519 503.051 314.234 502.996C314.812 502.941 315.376 503.01 315.926 503.203C316.476 503.395 316.972 503.725 317.412 504.193ZM324.929 500.809C325.012 501.222 325.094 501.689 325.177 502.212C325.287 502.707 325.397 503.23 325.507 503.78C325.617 504.303 325.713 504.84 325.796 505.39C325.878 505.94 325.947 506.463 326.002 506.958C326.332 506.243 326.69 505.486 327.075 504.688C327.46 503.89 327.873 503.161 328.313 502.501C328.781 501.813 329.262 501.249 329.757 500.809C330.28 500.369 330.844 500.149 331.449 500.149C332.357 500.149 333.114 500.479 333.719 501.139C334.352 501.8 334.875 502.625 335.287 503.615C335.728 504.578 336.072 505.596 336.319 506.669C336.567 507.742 336.773 508.691 336.938 509.517C337.103 510.26 336.773 510.81 335.948 511.167C335.563 511.36 335.274 511.388 335.081 511.25C334.889 511.112 334.778 510.975 334.751 510.837C334.613 510.507 334.435 509.929 334.214 509.104C334.022 508.279 333.788 507.44 333.513 506.587C333.265 505.734 332.976 504.991 332.646 504.358C332.316 503.725 331.945 503.437 331.532 503.492C331.037 503.519 330.597 503.89 330.211 504.606C329.881 505.184 329.537 505.83 329.18 506.545C328.85 507.233 328.519 507.949 328.189 508.691C327.859 509.407 327.529 510.136 327.199 510.879C326.896 511.594 326.607 512.254 326.332 512.859C326.14 513.052 325.892 513.19 325.589 513.272C325.314 513.327 325.025 513.3 324.723 513.19C324.448 513.107 324.228 512.969 324.062 512.777C323.897 512.584 323.815 512.392 323.815 512.199C323.567 510.053 323.306 508.1 323.031 506.339C322.783 504.578 322.453 502.776 322.04 500.933C321.848 500.3 321.806 499.805 321.917 499.447C322.054 499.062 322.467 498.911 323.155 498.993C324.117 499.158 324.709 499.764 324.929 500.809ZM347.289 503.038C347.51 503.34 347.716 503.725 347.908 504.193C348.129 504.633 348.294 505.087 348.404 505.555C348.569 506.298 348.748 507.109 348.94 507.99C349.16 508.843 349.367 509.737 349.559 510.672C349.779 511.608 349.972 512.557 350.137 513.52C350.33 514.483 350.495 515.404 350.632 516.285C350.797 517.495 350.701 518.651 350.343 519.751C350.013 520.879 349.449 521.883 348.651 522.764C347.853 523.644 346.863 524.346 345.68 524.869C344.497 525.391 343.163 525.68 341.677 525.735C341.347 525.708 341.003 525.543 340.645 525.24C340.288 524.965 340.109 524.676 340.109 524.373C340.081 524.071 340.219 523.823 340.521 523.63C340.852 523.465 341.182 523.355 341.512 523.3C342.09 523.245 342.681 523.121 343.286 522.929C343.919 522.764 344.511 522.516 345.061 522.186C345.611 521.856 346.106 521.457 346.547 520.989C347.014 520.522 347.372 519.971 347.62 519.339C347.812 518.843 347.908 518.238 347.908 517.523C347.908 516.78 347.853 516.051 347.743 515.336C347.661 514.62 347.537 513.946 347.372 513.313C347.234 512.653 347.111 512.158 347.001 511.828C346.808 512.02 346.56 512.227 346.258 512.447C345.983 512.667 345.666 512.873 345.309 513.066C344.951 513.258 344.552 513.41 344.112 513.52C343.699 513.63 343.273 513.671 342.832 513.644C342.365 513.616 341.925 513.451 341.512 513.148C341.127 512.846 340.783 512.461 340.48 511.993C340.178 511.498 339.93 510.934 339.737 510.301C339.572 509.668 339.49 509.008 339.49 508.32C339.545 506.669 339.957 505.211 340.728 503.945C341.526 502.652 342.791 501.648 344.524 500.933C344.662 500.905 344.841 500.878 345.061 500.85C345.309 500.823 345.556 500.823 345.804 500.85C346.051 500.85 346.285 500.878 346.505 500.933C346.753 500.988 346.959 501.07 347.124 501.181C347.427 501.401 347.578 501.717 347.578 502.13C347.578 502.542 347.482 502.845 347.289 503.038ZM342.09 508.691C342.09 508.994 342.117 509.338 342.172 509.723C342.227 510.081 342.406 510.342 342.709 510.507C343.039 510.7 343.438 510.727 343.905 510.59C344.401 510.452 344.855 510.218 345.267 509.888C345.652 509.585 345.9 509.255 346.01 508.898C346.148 508.513 346.148 508.004 346.01 507.371C345.873 506.738 345.721 506.078 345.556 505.39C345.391 504.702 345.281 504.083 345.226 503.533C344.896 503.698 344.538 503.932 344.153 504.234C343.795 504.537 343.465 504.922 343.163 505.39C342.86 505.83 342.599 506.325 342.378 506.876C342.186 507.426 342.09 508.031 342.09 508.691ZM360.696 497.59C360.641 497.865 360.449 498.017 360.118 498.044C359.788 498.072 359.513 498.085 359.293 498.085C358.605 498.113 357.89 498.182 357.147 498.292C356.432 498.402 355.675 498.567 354.877 498.787C354.547 498.897 354.189 498.856 353.804 498.663C353.419 498.471 353.185 498.085 353.103 497.508C353.103 497.288 353.185 497.109 353.35 496.971C353.515 496.834 353.708 496.71 353.928 496.6C354.286 496.435 354.712 496.297 355.207 496.187C355.703 496.049 356.198 495.953 356.693 495.898C357.216 495.843 357.711 495.829 358.179 495.857C358.646 495.857 359.032 495.898 359.334 495.981C359.774 496.118 360.118 496.325 360.366 496.6C360.641 496.875 360.751 497.205 360.696 497.59ZM359.747 511.333C359.94 511.773 360.036 512.254 360.036 512.777C360.063 513.272 359.926 513.616 359.623 513.809C359.238 514.056 358.825 514.042 358.385 513.767C357.945 513.492 357.615 513.121 357.395 512.653C357.092 512.075 356.858 511.374 356.693 510.548C356.528 509.696 356.404 508.856 356.322 508.031C356.239 507.206 356.184 506.435 356.157 505.72C356.157 505.005 356.157 504.468 356.157 504.111C356.184 503.725 356.294 503.368 356.487 503.038C356.679 502.707 356.927 502.515 357.23 502.46C357.725 502.487 358.124 502.721 358.426 503.161C358.729 503.574 358.867 504.097 358.839 504.73C358.839 505.225 358.853 505.775 358.88 506.38C358.908 506.986 358.963 507.591 359.045 508.196C359.128 508.801 359.224 509.393 359.334 509.971C359.444 510.521 359.582 510.975 359.747 511.333ZM366.399 500.809C366.481 501.222 366.564 501.689 366.647 502.212C366.757 502.707 366.867 503.23 366.977 503.78C367.087 504.303 367.183 504.84 367.266 505.39C367.348 505.94 367.417 506.463 367.472 506.958C367.802 506.243 368.16 505.486 368.545 504.688C368.93 503.89 369.343 503.161 369.783 502.501C370.251 501.813 370.732 501.249 371.227 500.809C371.75 500.369 372.314 500.149 372.919 500.149C373.827 500.149 374.584 500.479 375.189 501.139C375.822 501.8 376.345 502.625 376.757 503.615C377.197 504.578 377.541 505.596 377.789 506.669C378.037 507.742 378.243 508.691 378.408 509.517C378.573 510.26 378.243 510.81 377.418 511.167C377.032 511.36 376.743 511.388 376.551 511.25C376.358 511.112 376.248 510.975 376.221 510.837C376.083 510.507 375.904 509.929 375.684 509.104C375.492 508.279 375.258 507.44 374.983 506.587C374.735 505.734 374.446 504.991 374.116 504.358C373.786 503.725 373.415 503.437 373.002 503.492C372.507 503.519 372.066 503.89 371.681 504.606C371.351 505.184 371.007 505.83 370.65 506.545C370.319 507.233 369.989 507.949 369.659 508.691C369.329 509.407 368.999 510.136 368.669 510.879C368.366 511.594 368.077 512.254 367.802 512.859C367.609 513.052 367.362 513.19 367.059 513.272C366.784 513.327 366.495 513.3 366.193 513.19C365.917 513.107 365.697 512.969 365.532 512.777C365.367 512.584 365.285 512.392 365.285 512.199C365.037 510.053 364.776 508.1 364.501 506.339C364.253 504.578 363.923 502.776 363.51 500.933C363.318 500.3 363.276 499.805 363.386 499.447C363.524 499.062 363.937 498.911 364.624 498.993C365.587 499.158 366.179 499.764 366.399 500.809ZM391.235 504.73C390.162 505.362 389.007 505.858 387.769 506.215C386.531 506.545 385.196 506.71 383.766 506.71C383.821 507.673 384.096 508.444 384.591 509.021C385.086 509.572 385.705 509.902 386.448 510.012C386.888 510.067 387.329 510.053 387.769 509.971C388.236 509.888 388.663 509.764 389.048 509.599C389.461 509.407 389.832 509.2 390.162 508.98C390.492 508.76 390.781 508.54 391.029 508.32C391.277 508.1 391.538 507.962 391.813 507.907C392.088 507.825 392.295 507.811 392.432 507.866C392.817 508.004 392.955 508.416 392.845 509.104C392.405 509.984 391.772 510.741 390.946 511.374C390.121 511.979 389.199 512.364 388.181 512.529C387.301 512.694 386.393 512.653 385.458 512.405C384.522 512.158 383.683 511.676 382.94 510.961C382.308 510.328 381.826 509.585 381.496 508.733C381.166 507.88 380.96 506.999 380.877 506.091C380.794 505.239 380.863 504.427 381.083 503.657C381.331 502.886 381.702 502.212 382.198 501.634C382.693 501.029 383.312 500.534 384.055 500.149C384.797 499.764 385.664 499.544 386.655 499.489C387.838 499.406 388.911 499.626 389.873 500.149C390.836 500.672 391.51 501.401 391.896 502.336C392.116 502.859 392.171 503.313 392.061 503.698C391.978 504.083 391.703 504.427 391.235 504.73ZM386.489 501.923C386.214 501.978 385.912 502.075 385.582 502.212C385.279 502.35 384.99 502.529 384.715 502.749C384.467 502.941 384.233 503.175 384.013 503.45C383.821 503.698 383.711 503.987 383.683 504.317C384.151 504.317 384.66 504.276 385.21 504.193C385.788 504.111 386.338 504.014 386.861 503.904C387.411 503.767 387.906 503.615 388.347 503.45C388.814 503.285 389.199 503.106 389.502 502.914C389.282 502.391 388.869 502.075 388.264 501.965C387.686 501.827 387.095 501.813 386.489 501.923ZM405.703 504.73C404.63 505.362 403.475 505.858 402.237 506.215C400.999 506.545 399.664 506.71 398.234 506.71C398.289 507.673 398.564 508.444 399.059 509.021C399.554 509.572 400.173 509.902 400.916 510.012C401.356 510.067 401.797 510.053 402.237 509.971C402.705 509.888 403.131 509.764 403.516 509.599C403.929 509.407 404.3 509.2 404.63 508.98C404.961 508.76 405.249 508.54 405.497 508.32C405.745 508.1 406.006 507.962 406.281 507.907C406.556 507.825 406.763 507.811 406.9 507.866C407.285 508.004 407.423 508.416 407.313 509.104C406.873 509.984 406.24 510.741 405.415 511.374C404.589 511.979 403.668 512.364 402.65 512.529C401.769 512.694 400.861 512.653 399.926 512.405C398.99 512.158 398.151 511.676 397.408 510.961C396.776 510.328 396.294 509.585 395.964 508.733C395.634 507.88 395.428 506.999 395.345 506.091C395.263 505.239 395.331 504.427 395.551 503.657C395.799 502.886 396.17 502.212 396.666 501.634C397.161 501.029 397.78 500.534 398.523 500.149C399.266 499.764 400.132 499.544 401.123 499.489C402.306 499.406 403.379 499.626 404.342 500.149C405.304 500.672 405.979 501.401 406.364 502.336C406.584 502.859 406.639 503.313 406.529 503.698C406.446 504.083 406.171 504.427 405.703 504.73ZM400.958 501.923C400.682 501.978 400.38 502.075 400.05 502.212C399.747 502.35 399.458 502.529 399.183 502.749C398.935 502.941 398.702 503.175 398.481 503.45C398.289 503.698 398.179 503.987 398.151 504.317C398.619 504.317 399.128 504.276 399.678 504.193C400.256 504.111 400.806 504.014 401.329 503.904C401.879 503.767 402.374 503.615 402.815 503.45C403.282 503.285 403.668 503.106 403.97 502.914C403.75 502.391 403.337 502.075 402.732 501.965C402.154 501.827 401.563 501.813 400.958 501.923ZM422.524 500.19C422.029 500.465 421.506 500.754 420.956 501.057C420.433 501.359 419.896 501.717 419.346 502.13C418.823 502.515 418.314 502.983 417.819 503.533C417.351 504.056 416.925 504.688 416.54 505.431C415.99 506.477 415.618 507.55 415.426 508.65C415.233 509.723 415.109 510.782 415.054 511.828C415.054 512.323 414.93 512.832 414.683 513.355C414.463 513.85 414.146 514.097 413.734 514.097C413.211 514.097 412.784 513.836 412.454 513.313C412.152 512.763 411.945 512.24 411.835 511.745C411.368 509.792 410.982 507.866 410.68 505.968C410.377 504.042 410.116 502.13 409.896 500.231C409.896 499.846 410.006 499.599 410.226 499.489C410.473 499.378 410.749 499.337 411.051 499.365C411.381 499.392 411.698 499.475 412 499.612C412.303 499.75 412.482 499.97 412.537 500.273C412.647 501.291 412.784 502.364 412.95 503.492C413.115 504.592 413.28 505.541 413.445 506.339C413.555 505.404 413.857 504.496 414.353 503.615C414.848 502.735 415.453 501.937 416.168 501.222C416.911 500.506 417.737 499.901 418.645 499.406C419.58 498.911 420.529 498.581 421.492 498.416C421.905 498.361 422.249 498.361 422.524 498.416C422.799 498.471 422.991 498.567 423.102 498.704C423.212 498.842 423.225 499.062 423.143 499.365C423.088 499.667 422.881 499.942 422.524 500.19ZM431.948 497.59C431.893 497.865 431.701 498.017 431.371 498.044C431.041 498.072 430.765 498.085 430.545 498.085C429.858 498.113 429.142 498.182 428.399 498.292C427.684 498.402 426.927 498.567 426.13 498.787C425.799 498.897 425.442 498.856 425.057 498.663C424.671 498.471 424.438 498.085 424.355 497.508C424.355 497.288 424.438 497.109 424.603 496.971C424.768 496.834 424.96 496.71 425.18 496.6C425.538 496.435 425.965 496.297 426.46 496.187C426.955 496.049 427.45 495.953 427.945 495.898C428.468 495.843 428.963 495.829 429.431 495.857C429.899 495.857 430.284 495.898 430.587 495.981C431.027 496.118 431.371 496.325 431.618 496.6C431.893 496.875 432.003 497.205 431.948 497.59ZM430.999 511.333C431.192 511.773 431.288 512.254 431.288 512.777C431.316 513.272 431.178 513.616 430.875 513.809C430.49 514.056 430.078 514.042 429.637 513.767C429.197 513.492 428.867 513.121 428.647 512.653C428.344 512.075 428.11 511.374 427.945 510.548C427.78 509.696 427.657 508.856 427.574 508.031C427.491 507.206 427.436 506.435 427.409 505.72C427.409 505.005 427.409 504.468 427.409 504.111C427.436 503.725 427.546 503.368 427.739 503.038C427.932 502.707 428.179 502.515 428.482 502.46C428.977 502.487 429.376 502.721 429.679 503.161C429.981 503.574 430.119 504.097 430.091 504.73C430.091 505.225 430.105 505.775 430.133 506.38C430.16 506.986 430.215 507.591 430.298 508.196C430.38 508.801 430.477 509.393 430.587 509.971C430.697 510.521 430.834 510.975 430.999 511.333ZM437.651 500.809C437.734 501.222 437.816 501.689 437.899 502.212C438.009 502.707 438.119 503.23 438.229 503.78C438.339 504.303 438.435 504.84 438.518 505.39C438.6 505.94 438.669 506.463 438.724 506.958C439.054 506.243 439.412 505.486 439.797 504.688C440.182 503.89 440.595 503.161 441.035 502.501C441.503 501.813 441.984 501.249 442.48 500.809C443.002 500.369 443.566 500.149 444.172 500.149C445.079 500.149 445.836 500.479 446.441 501.139C447.074 501.8 447.597 502.625 448.01 503.615C448.45 504.578 448.794 505.596 449.041 506.669C449.289 507.742 449.495 508.691 449.66 509.517C449.825 510.26 449.495 510.81 448.67 511.167C448.285 511.36 447.996 511.388 447.803 511.25C447.611 511.112 447.501 510.975 447.473 510.837C447.335 510.507 447.157 509.929 446.937 509.104C446.744 508.279 446.51 507.44 446.235 506.587C445.987 505.734 445.699 504.991 445.368 504.358C445.038 503.725 444.667 503.437 444.254 503.492C443.759 503.519 443.319 503.89 442.934 504.606C442.603 505.184 442.259 505.83 441.902 506.545C441.572 507.233 441.242 507.949 440.911 508.691C440.581 509.407 440.251 510.136 439.921 510.879C439.618 511.594 439.329 512.254 439.054 512.859C438.862 513.052 438.614 513.19 438.311 513.272C438.036 513.327 437.747 513.3 437.445 513.19C437.17 513.107 436.95 512.969 436.785 512.777C436.619 512.584 436.537 512.392 436.537 512.199C436.289 510.053 436.028 508.1 435.753 506.339C435.505 504.578 435.175 502.776 434.762 500.933C434.57 500.3 434.529 499.805 434.639 499.447C434.776 499.062 435.189 498.911 435.877 498.993C436.84 499.158 437.431 499.764 437.651 500.809ZM460.012 503.038C460.232 503.34 460.438 503.725 460.631 504.193C460.851 504.633 461.016 505.087 461.126 505.555C461.291 506.298 461.47 507.109 461.662 507.99C461.882 508.843 462.089 509.737 462.281 510.672C462.501 511.608 462.694 512.557 462.859 513.52C463.052 514.483 463.217 515.404 463.354 516.285C463.519 517.495 463.423 518.651 463.065 519.751C462.735 520.879 462.171 521.883 461.373 522.764C460.576 523.644 459.585 524.346 458.402 524.869C457.219 525.391 455.885 525.68 454.399 525.735C454.069 525.708 453.725 525.543 453.367 525.24C453.01 524.965 452.831 524.676 452.831 524.373C452.803 524.071 452.941 523.823 453.244 523.63C453.574 523.465 453.904 523.355 454.234 523.3C454.812 523.245 455.403 523.121 456.008 522.929C456.641 522.764 457.233 522.516 457.783 522.186C458.333 521.856 458.828 521.457 459.269 520.989C459.736 520.522 460.094 519.971 460.342 519.339C460.534 518.843 460.631 518.238 460.631 517.523C460.631 516.78 460.576 516.051 460.465 515.336C460.383 514.62 460.259 513.946 460.094 513.313C459.956 512.653 459.833 512.158 459.723 511.828C459.53 512.02 459.282 512.227 458.98 512.447C458.705 512.667 458.388 512.873 458.031 513.066C457.673 513.258 457.274 513.41 456.834 513.52C456.421 513.63 455.995 513.671 455.555 513.644C455.087 513.616 454.647 513.451 454.234 513.148C453.849 512.846 453.505 512.461 453.202 511.993C452.9 511.498 452.652 510.934 452.459 510.301C452.294 509.668 452.212 509.008 452.212 508.32C452.267 506.669 452.68 505.211 453.45 503.945C454.248 502.652 455.513 501.648 457.247 500.933C457.384 500.905 457.563 500.878 457.783 500.85C458.031 500.823 458.278 500.823 458.526 500.85C458.773 500.85 459.007 500.878 459.227 500.933C459.475 500.988 459.681 501.07 459.846 501.181C460.149 501.401 460.3 501.717 460.3 502.13C460.3 502.542 460.204 502.845 460.012 503.038ZM454.812 508.691C454.812 508.994 454.839 509.338 454.894 509.723C454.949 510.081 455.128 510.342 455.431 510.507C455.761 510.7 456.16 510.727 456.628 510.59C457.123 510.452 457.577 510.218 457.989 509.888C458.375 509.585 458.622 509.255 458.732 508.898C458.87 508.513 458.87 508.004 458.732 507.371C458.595 506.738 458.443 506.078 458.278 505.39C458.113 504.702 458.003 504.083 457.948 503.533C457.618 503.698 457.26 503.932 456.875 504.234C456.517 504.537 456.187 504.922 455.885 505.39C455.582 505.83 455.321 506.325 455.101 506.876C454.908 507.426 454.812 508.031 454.812 508.691ZM495.013 498.003C492.179 497.865 489.455 498.085 486.842 498.663C484.228 499.241 481.642 500.025 479.083 501.015C478.423 501.263 477.914 501.236 477.556 500.933C477.226 500.63 477.061 500.328 477.061 500.025C477.254 499.502 477.598 499.076 478.093 498.746C483.733 495.994 489.373 494.977 495.013 495.692C495.288 495.774 495.508 495.981 495.673 496.311C495.866 496.613 495.934 496.875 495.879 497.095C495.824 497.37 495.742 497.604 495.632 497.797C495.522 497.962 495.315 498.03 495.013 498.003ZM489.153 512.405C489.153 512.708 489.043 512.983 488.823 513.231C488.63 513.451 488.382 513.589 488.08 513.644C487.53 513.726 487.172 513.63 487.007 513.355C486.842 513.08 486.745 512.763 486.718 512.405C486.69 510.48 486.649 508.568 486.594 506.669C486.567 504.743 486.484 502.817 486.346 500.892C486.346 500.782 486.333 500.658 486.305 500.52C486.278 500.355 486.278 500.204 486.305 500.066C486.333 499.901 486.388 499.764 486.47 499.654C486.58 499.544 486.745 499.461 486.966 499.406C487.598 499.296 488.052 499.406 488.327 499.736C488.602 500.039 488.74 500.341 488.74 500.644C488.96 502.625 489.098 504.592 489.153 506.545C489.208 508.499 489.208 510.452 489.153 512.405ZM508.391 504.73C507.318 505.362 506.162 505.858 504.924 506.215C503.686 506.545 502.352 506.71 500.921 506.71C500.976 507.673 501.251 508.444 501.746 509.021C502.242 509.572 502.861 509.902 503.603 510.012C504.044 510.067 504.484 510.053 504.924 509.971C505.392 509.888 505.818 509.764 506.203 509.599C506.616 509.407 506.987 509.2 507.318 508.98C507.648 508.76 507.937 508.54 508.184 508.32C508.432 508.1 508.693 507.962 508.968 507.907C509.243 507.825 509.45 507.811 509.587 507.866C509.972 508.004 510.11 508.416 510 509.104C509.56 509.984 508.927 510.741 508.102 511.374C507.276 511.979 506.355 512.364 505.337 512.529C504.456 512.694 503.548 512.653 502.613 512.405C501.678 512.158 500.838 511.676 500.096 510.961C499.463 510.328 498.981 509.585 498.651 508.733C498.321 507.88 498.115 506.999 498.032 506.091C497.95 505.239 498.018 504.427 498.239 503.657C498.486 502.886 498.858 502.212 499.353 501.634C499.848 501.029 500.467 500.534 501.21 500.149C501.953 499.764 502.819 499.544 503.81 499.489C504.993 499.406 506.066 499.626 507.029 500.149C507.992 500.672 508.666 501.401 509.051 502.336C509.271 502.859 509.326 503.313 509.216 503.698C509.133 504.083 508.858 504.427 508.391 504.73ZM503.645 501.923C503.37 501.978 503.067 502.075 502.737 502.212C502.434 502.35 502.145 502.529 501.87 502.749C501.623 502.941 501.389 503.175 501.169 503.45C500.976 503.698 500.866 503.987 500.838 504.317C501.306 504.317 501.815 504.276 502.365 504.193C502.943 504.111 503.493 504.014 504.016 503.904C504.566 503.767 505.062 503.615 505.502 503.45C505.969 503.285 506.355 503.106 506.657 502.914C506.437 502.391 506.024 502.075 505.419 501.965C504.841 501.827 504.25 501.813 503.645 501.923ZM523.189 499.158C523.299 499.929 523.381 500.754 523.436 501.634C523.519 502.487 523.574 503.354 523.601 504.234C523.656 505.115 523.684 505.968 523.684 506.793C523.684 507.618 523.67 508.361 523.643 509.021C524.523 509.627 525.046 510.163 525.211 510.631C525.403 511.099 525.431 511.511 525.293 511.869C525.128 512.364 524.826 512.626 524.386 512.653C523.973 512.653 523.491 512.502 522.941 512.199C522.556 512.474 522.116 512.777 521.621 513.107C521.125 513.41 520.603 513.712 520.052 514.015C519.502 514.29 518.952 514.538 518.402 514.758C517.851 514.978 517.342 515.129 516.875 515.212C515.994 515.349 515.196 515.184 514.481 514.717C513.793 514.249 513.326 513.547 513.078 512.612C512.913 511.979 512.872 511.333 512.954 510.672C513.037 509.984 513.243 509.338 513.573 508.733C513.903 508.1 514.344 507.536 514.894 507.041C515.472 506.545 516.146 506.16 516.916 505.885C517.109 505.803 517.37 505.734 517.7 505.679C518.058 505.624 518.415 505.61 518.773 505.637C519.158 505.637 519.543 505.706 519.929 505.844C520.314 505.981 520.671 506.215 521.002 506.545C521.002 506.078 520.988 505.569 520.96 505.018C520.96 504.441 520.947 503.863 520.919 503.285C520.891 502.707 520.85 502.171 520.795 501.676C520.768 501.153 520.726 500.713 520.671 500.355C520.616 499.942 520.451 499.695 520.176 499.612C519.929 499.502 519.612 499.516 519.227 499.654C518.567 499.874 517.796 500.3 516.916 500.933C516.036 501.566 515.196 502.24 514.399 502.955C514.151 503.203 513.862 503.313 513.532 503.285C513.229 503.258 512.968 503.134 512.748 502.914C512.528 502.694 512.404 502.446 512.376 502.171C512.349 501.868 512.459 501.552 512.707 501.222C513.174 500.727 513.697 500.218 514.275 499.695C514.853 499.172 515.458 498.704 516.091 498.292C516.723 497.852 517.37 497.494 518.03 497.219C518.691 496.944 519.351 496.792 520.011 496.765C520.974 496.737 521.717 496.957 522.24 497.425C522.762 497.865 523.079 498.443 523.189 499.158ZM518.402 508.031C518.044 508.114 517.659 508.292 517.246 508.568C516.861 508.815 516.503 509.132 516.173 509.517C515.871 509.874 515.637 510.287 515.472 510.755C515.334 511.195 515.334 511.635 515.472 512.075C515.527 512.24 515.637 512.364 515.802 512.447C515.994 512.529 516.201 512.543 516.421 512.488C517.081 512.35 517.824 512.089 518.649 511.704C519.502 511.291 520.176 510.851 520.671 510.383C520.671 510.218 520.589 510.012 520.424 509.764C520.259 509.489 520.066 509.228 519.846 508.98C519.626 508.705 519.378 508.471 519.103 508.279C518.856 508.086 518.622 508.004 518.402 508.031ZM530.179 501.098C530.206 501.538 530.247 502.088 530.302 502.749C530.385 503.381 530.467 504.056 530.55 504.771C530.633 505.459 530.715 506.146 530.798 506.834C530.908 507.522 531.004 508.155 531.086 508.733C531.389 508.127 531.761 507.385 532.201 506.504C532.641 505.624 533.095 504.785 533.563 503.987C534.058 503.161 534.553 502.474 535.048 501.923C535.571 501.346 536.039 501.057 536.451 501.057C536.892 501.057 537.29 501.277 537.648 501.717C538.033 502.13 538.363 502.639 538.639 503.244C538.914 503.849 539.148 504.496 539.34 505.184C539.56 505.871 539.739 506.477 539.877 506.999C539.987 506.642 540.124 506.243 540.289 505.803C540.482 505.335 540.674 504.867 540.867 504.399C541.087 503.904 541.321 503.423 541.569 502.955C541.844 502.487 542.133 502.075 542.435 501.717C542.793 501.332 543.178 501.057 543.591 500.892C544.003 500.699 544.306 500.603 544.499 500.603C544.746 500.603 545.035 500.685 545.365 500.85C545.723 500.988 546.081 501.181 546.438 501.428C546.796 501.676 547.126 501.978 547.429 502.336C547.759 502.666 548.02 503.01 548.213 503.368C548.598 504.111 548.901 504.922 549.121 505.803C549.368 506.683 549.547 507.522 549.657 508.32C549.767 509.118 549.836 509.833 549.864 510.466C549.919 511.071 549.96 511.498 549.987 511.745C549.987 512.103 549.946 512.378 549.864 512.571C549.781 512.736 549.63 512.873 549.41 512.983C549.107 513.121 548.846 513.176 548.626 513.148C548.405 513.093 548.227 512.997 548.089 512.859C547.951 512.722 547.841 512.571 547.759 512.405C547.676 512.213 547.621 512.048 547.594 511.91C547.511 511.277 547.415 510.631 547.305 509.971C547.222 509.31 547.126 508.678 547.016 508.072C546.906 507.44 546.768 506.862 546.603 506.339C546.466 505.789 546.315 505.307 546.149 504.895C546.094 504.785 545.998 504.647 545.861 504.482C545.751 504.289 545.613 504.111 545.448 503.945C545.31 503.78 545.173 503.643 545.035 503.533C544.898 503.423 544.801 503.354 544.746 503.326C544.471 503.326 544.182 503.588 543.88 504.111C543.577 504.606 543.288 505.211 543.013 505.926C542.738 506.642 542.477 507.398 542.229 508.196C542.009 508.966 541.844 509.627 541.734 510.177C541.734 510.892 541.596 511.429 541.321 511.786C541.046 512.117 540.757 512.282 540.454 512.282C540.152 512.282 539.822 512.172 539.464 511.952C539.134 511.704 538.914 511.429 538.804 511.126C538.639 510.686 538.46 510.191 538.267 509.641C538.075 509.09 537.868 508.526 537.648 507.949C537.456 507.371 537.249 506.807 537.029 506.257C536.837 505.706 536.644 505.211 536.451 504.771C536.066 505.294 535.681 505.871 535.296 506.504C534.938 507.137 534.581 507.783 534.223 508.444C533.893 509.104 533.563 509.764 533.232 510.425C532.93 511.057 532.641 511.621 532.366 512.117C532.173 512.419 531.967 512.694 531.747 512.942C531.527 513.162 531.265 513.272 530.963 513.272C530.743 513.272 530.509 513.176 530.261 512.983C530.014 512.763 529.78 512.502 529.56 512.199C529.339 511.897 529.133 511.553 528.941 511.167C528.775 510.782 528.652 510.397 528.569 510.012C528.349 508.829 528.156 507.536 527.991 506.133C527.854 504.702 527.716 503.313 527.579 501.965C527.551 501.497 527.606 501.07 527.744 500.685C527.909 500.273 528.211 499.997 528.652 499.86C529.119 499.777 529.477 499.846 529.725 500.066C529.972 500.286 530.124 500.63 530.179 501.098Z" fill="#350079"/>
<path d="M267.536 19.3237C262.471 19.3237 258.365 23.4295 258.365 28.4944C258.365 33.5592 262.471 37.6651 267.536 37.6651C272.601 37.6651 276.707 33.5592 276.707 28.4944C276.707 23.4295 272.601 19.3237 267.536 19.3237ZM267.536 502.507C262.471 502.507 258.365 506.612 258.365 511.677C258.365 516.742 262.471 520.848 267.536 520.848C272.601 520.848 276.707 516.742 276.707 511.677C276.707 506.612 272.601 502.507 267.536 502.507ZM265.816 28.4944L265.816 511.677L269.255 511.677L269.255 28.4944L265.816 28.4944Z" fill="#350079"/>
<circle cx="267.537" cy="270.515" r="9.45732" fill="#350079"/>
</svg>
